<?xml version="1.0" encoding="UTF-8"?>
<svg version="1.1" xmlns="http://www.w3.org/2000/svg" width="1024" height="1024">
<path d="M0 0 C337.92 0 675.84 0 1024 0 C1024 337.92 1024 675.84 1024 1024 C686.08 1024 348.16 1024 0 1024 C0 686.08 0 348.16 0 0 Z " fill="#FEFEFE" transform="translate(0,0)"/>
<path d="M0 0 C6.50208227 4.14197981 12.15131365 9.63080928 17.89648438 14.73925781 C20.31919869 16.86738909 22.8068261 18.90805067 25.3125 20.9375 C29.31488911 24.17979148 33.26345635 27.47643128 37.1875 30.8125 C41.15649152 34.18538602 45.1476718 37.52426774 49.1875 40.8125 C53.7928325 44.56102646 58.32954444 48.38334246 62.85375977 52.22875977 C66.24704109 55.1079532 69.67017786 57.94454237 73.125 60.75 C77.98799424 64.70693418 82.74450203 68.77685942 87.49365234 72.86865234 C91.91058718 76.66651501 96.39703997 80.36930041 100.91796875 84.04296875 C106.79549411 88.85938939 112.56361914 93.807443 118.35351562 98.72851562 C123.93035638 103.46653662 129.51332784 108.19092789 135.1875 112.8125 C140.39728109 117.05638007 145.54187898 121.37241033 150.65625 125.73046875 C152.50338478 127.30386577 154.35614151 128.87073311 156.21875 130.42578125 C156.9303125 131.02777344 157.641875 131.62976563 158.375 132.25 C158.97699219 132.75402344 159.57898438 133.25804687 160.19921875 133.77734375 C162.93215408 136.59635578 163.64575254 138.85327792 164 142.75 C163.66499464 146.56906107 163.06408622 148.34176723 160.6875 151.3125 C150.23549328 156.53850336 137.37319876 153.3125 125.6875 153.3125 C125.6875 211.3925 125.6875 269.4725 125.6875 329.3125 C119.0875 331.9525 112.4875 334.5925 105.6875 337.3125 C101.94289038 339.01088796 98.27968556 340.70180689 94.625 342.5625 C93.71854736 343.02084229 92.81209473 343.47918457 91.87817383 343.95141602 C73.31617145 353.51807362 55.4372021 365.51172224 39.47265625 378.984375 C37.6875 380.3125 37.6875 380.3125 35.6875 380.3125 C35.26621826 379.37736572 35.26621826 379.37736572 34.83642578 378.42333984 C29.11630279 365.82978712 23.34057864 354.13236582 14.6875 343.3125 C13.92566406 342.33152344 13.16382813 341.35054688 12.37890625 340.33984375 C-24.24315283 294.1973187 -84.90764174 279.64040603 -140.15893555 269.77392578 C-142.3125 269.3125 -142.3125 269.3125 -144.3125 268.3125 C-144.3125 230.3625 -144.3125 192.4125 -144.3125 153.3125 C-154.2125 153.3125 -164.1125 153.3125 -174.3125 153.3125 C-180.3125 148.3125 -180.3125 148.3125 -181.2578125 146.06640625 C-181.31710937 145.34324219 -181.37640625 144.62007812 -181.4375 143.875 C-181.56511719 142.79412109 -181.56511719 142.79412109 -181.6953125 141.69140625 C-180.74527725 135.78761578 -176.00088207 131.8206996 -171.75 128 C-171.2233374 127.525625 -170.6966748 127.05125 -170.15405273 126.5625 C-165.9281014 122.78641412 -161.57299508 119.1806687 -157.16015625 115.625 C-154.00628627 113.06383261 -150.90655641 110.44526569 -147.8125 107.8125 C-143.86619832 104.45779659 -139.89607179 101.14027563 -135.875 97.875 C-131.01041376 93.91677044 -126.25187822 89.84600939 -121.50195312 85.75195312 C-118.00033649 82.74018013 -114.46472407 79.78198309 -110.875 76.875 C-105.76942535 72.73189009 -100.81449947 68.4301955 -95.85961914 64.10961914 C-91.37499149 60.20828359 -86.8076833 56.42764838 -82.1875 52.6875 C-78.01429162 49.24006699 -73.94656461 45.67458124 -69.86816406 42.1159668 C-66.15277503 38.88228998 -62.3959422 35.71913549 -58.5625 32.625 C-53.89628869 28.84923434 -49.4819655 24.84897821 -45.06640625 20.78515625 C-41.48903857 17.57313676 -37.76559332 14.56654284 -34.01953125 11.5546875 C-30.41120951 8.56597656 -27.00082417 5.38320202 -23.6015625 2.16015625 C-17.14816522 -3.04881459 -7.41899835 -3.68838248 0 0 Z " fill="#234F87" transform="translate(569.3125,103.6875)"/>
<path d="M0 0 C-3.28846126 2.19230751 -5.5916067 2.70972336 -9.44140625 3.515625 C-10.75220594 3.796455 -12.06291205 4.07772204 -13.37353516 4.359375 C-14.05796692 4.50439453 -14.74239868 4.64941406 -15.4475708 4.79882812 C-45.35621436 10.48399399 -45.35621436 10.48399399 -70 27 C-70.91666667 30 -70.91666667 30 -70 33 C-48.23954758 53.26302744 -6.58756628 57.30619844 21.59082031 64.10888672 C136.10623234 91.77467795 136.10623234 91.77467795 165.82421875 140.25 C178.33306404 161.38047968 182.05007182 184.20837089 176.75390625 208.15625 C176 211 176 211 175 213 C174.34 213 173.68 213 173 213 C171.7734375 211.53125 171.7734375 211.53125 170.375 209.5 C163.0776996 199.59030088 154.58309554 193.95299124 144 188 C144.30744141 186.87851562 144.30744141 186.87851562 144.62109375 185.734375 C145.02521484 184.25710938 145.02521484 184.25710938 145.4375 182.75 C145.70433594 181.77546875 145.97117187 180.8009375 146.24609375 179.796875 C146.61927734 178.41242188 146.61927734 178.41242188 147 177 C147.19078125 176.36707031 147.3815625 175.73414063 147.578125 175.08203125 C149.95214136 163.36582089 147.55000203 152.48942091 141.375 142.4375 C131.85144168 129.14716115 118.66919148 120.72619609 104 114 C104.76183594 114.556875 105.52367187 115.11375 106.30859375 115.6875 C120.46632592 126.15114225 132.32197022 136.21934697 137 154 C138.32262878 163.6876757 136.37214864 173.25570273 132 182 C119.67642058 179.4995636 107.68017042 175.57033698 95.64295959 171.96994019 C90.89776542 170.55353007 86.14203496 169.18479487 81.375 167.84375 C79.10406093 167.187866 76.83322102 166.5316385 74.5625 165.875 C73.54744385 165.59962402 72.5323877 165.32424805 71.48657227 165.04052734 C61.68865743 162.15218626 54.19950916 156.30094638 46.75 149.4375 C45.5125 148.30248047 45.5125 148.30248047 44.25 147.14453125 C42.36286467 145.34585539 40.54945898 143.50993328 38.75 141.625 C17.28379488 120.05918372 -12.73784143 109.19798307 -40.1875 97.375 C-41.33847168 96.87822754 -42.48944336 96.38145508 -43.67529297 95.86962891 C-49.71581706 93.29511096 -55.73590518 90.97117239 -62 89 C-60.8346875 89.6084375 -59.669375 90.216875 -58.46875 90.84375 C-48.24964611 96.27360537 -38.44331678 102.14195548 -28.8125 108.5625 C-27.75546875 109.26503906 -26.6984375 109.96757812 -25.609375 110.69140625 C-18.13242809 115.73514382 -18.13242809 115.73514382 -17 118 C-17.54269531 118.29132813 -18.08539063 118.58265625 -18.64453125 118.8828125 C-23.37779531 121.59484488 -26.32721444 123.56344693 -28 129 C-31.25901664 157.40000217 -9.81663695 193.57491823 7.11523438 215.2097168 C11.15286874 220.27162701 15.33740608 225.21244129 19.5546875 230.125 C21.75239719 232.7088887 23.88096583 235.35120728 26 238 C-0.73 238 -27.46 238 -55 238 C-49.3737037 233.49896296 -49.3737037 233.49896296 -46.36328125 232.21875 C-45.70787354 231.93596191 -45.05246582 231.65317383 -44.37719727 231.36181641 C-43.35517212 230.93521729 -43.35517212 230.93521729 -42.3125 230.5 C-41.60859131 230.19884277 -40.90468262 229.89768555 -40.17944336 229.58740234 C-35.39375621 227.55040351 -30.57835304 225.59102037 -25.72265625 223.7265625 C-24.00315965 223.12873754 -24.00315965 223.12873754 -23 222 C-37.832587 221.25213847 -52.05516159 223.30168063 -63.66947174 233.46021461 C-68.85624888 237.81937036 -72.48160387 238.85865891 -79.16992188 238.68115234 C-80.04891144 238.6820285 -80.927901 238.68290466 -81.83352661 238.68380737 C-84.71286717 238.67965715 -87.5898211 238.63312885 -90.46875 238.5859375 C-92.4751254 238.57473619 -94.48151731 238.56620042 -96.48791504 238.56021118 C-101.74904299 238.53738656 -107.0091649 238.47851816 -112.26989746 238.4119873 C-117.64593906 238.35042725 -123.02214445 238.3231669 -128.3984375 238.29296875 C-138.93273182 238.2287688 -149.466282 238.12646656 -160 238 C-157.19114479 235.00530665 -154.48360719 233.68326151 -150.6875 232.0625 C-149.57761719 231.57910156 -148.46773438 231.09570312 -147.32421875 230.59765625 C-135.53864177 226.03145545 -123.48494887 223.89448543 -111.0625 222 C-89.59989687 218.77574035 -89.59989687 218.77574035 -69.3125 211.3125 C-68.60609375 210.9707373 -67.8996875 210.62897461 -67.171875 210.27685547 C-56.26028533 204.81363441 -47.77345736 197.40274262 -40 188 C-40.81791016 188.54527344 -40.81791016 188.54527344 -41.65234375 189.1015625 C-43.25150647 190.16767098 -44.85329305 191.22984936 -46.45703125 192.2890625 C-48.01611262 193.33802969 -49.55970887 194.41108561 -51.07421875 195.5234375 C-65.98730145 206.26085705 -85.95369573 211.03979212 -103.97265625 212.38671875 C-123.89398301 213.89420119 -146.03802672 216.90789206 -163 228.2734375 C-177.20877615 237.40596262 -189.08622917 239.31478814 -205.6875 239.375 C-206.63725708 239.39093201 -207.58701416 239.40686401 -208.56555176 239.42327881 C-220.37968348 239.54600779 -228.62867543 238.41505562 -238.12524414 231.12182617 C-247.4409185 224.2460278 -260.00214948 225.67006448 -271 226 C-251.10584609 205.05688161 -215.89117509 198.74237226 -189.31018066 190.20635986 C-141.64845911 178.22428565 -141.64845911 178.22428565 -105 149 C-103.08719135 143.26157405 -102.92741697 136.52813948 -105.4375 130.9375 C-117.3168068 110.68493181 -141.52058991 99.66180906 -161.46166992 89.22363281 C-176.02327625 81.51983012 -192.2649411 72.20339162 -200 57 C-201.73940475 51.26683039 -201.94818255 45.38991808 -199.4375 39.875 C-190.78866519 24.83613261 -173.09558479 19.22429971 -157.33056641 14.87207031 C-105.47056261 1.29312781 -53.28006131 -0.28520168 0 0 Z " fill="#5CA8DB" transform="translate(407,325)"/>
<path d="M0 0 C2 1.5 2 1.5 3 4 C3.37071593 10.6804523 2.29126556 16.78381484 0.9375 23.3125 C0.71489502 24.39700439 0.49229004 25.48150879 0.26293945 26.59887695 C-9.80936982 74.54966262 -26.69499634 122.06239101 -69.11767578 150.77685547 C-83.7034072 160.2547432 -99.24839897 167.594649 -115.09375 174.69287109 C-119.03817965 176.46693665 -122.95897877 178.28927184 -126.875 180.125 C-127.98617187 180.64320313 -129.09734375 181.16140625 -130.2421875 181.6953125 C-132.86973884 182.86602444 -132.86973884 182.86602444 -134.66204834 184.06735229 C-138.11068608 185.4430711 -141.50901393 185.26114427 -145.16503906 185.22705078 C-146.39486511 185.22748886 -146.39486511 185.22748886 -147.64953613 185.22793579 C-150.35500737 185.22654432 -153.06020197 185.2109917 -155.765625 185.1953125 C-157.64320729 185.19158172 -159.52079153 185.18873506 -161.39837646 185.18673706 C-166.33692818 185.17910571 -171.27536201 185.15946145 -176.21386719 185.1373291 C-181.25454107 185.11685998 -186.29523402 185.10773306 -191.3359375 185.09765625 C-201.22401009 185.07621513 -211.11199524 185.04208514 -221 185 C-221.01205839 182.75180356 -221.0206765 180.50358848 -221.02783203 178.25537109 C-221.03299835 177.00339935 -221.03816467 175.75142761 -221.04348755 174.46151733 C-220.7517856 151.24265594 -208.16408396 128.05193073 -192 112 C-176.75678448 97.74488898 -159.46965768 90.03662909 -140.02197266 83.08203125 C-117.91560077 75.16674282 -97.70211539 66.48180209 -79.47631836 51.35058594 C-71.53837921 44.81080041 -65.19220018 40.63745238 -54.671875 40.70703125 C-51.10144702 41.09852555 -49.35491676 42.33109434 -47 45 C-44.86057297 49.27885406 -45.44894027 54.36558769 -46 59 C-53.99352011 82.62019672 -82.03125116 96.53327713 -101.82299805 108.73999023 C-104.99132753 110.70125885 -108.06885724 112.69643189 -111 115 C-100.692091 112.7505205 -91.40257066 109.94496763 -82 105 C-80.97003906 104.46375 -79.94007813 103.9275 -78.87890625 103.375 C-71.69825311 99.42335394 -65.78793846 94.78793846 -60 89 C-58.84177734 87.84177734 -58.84177734 87.84177734 -57.66015625 86.66015625 C-51.70805487 80.38246984 -47.20229123 73.5437607 -43 66 C-42.53851562 65.18660156 -42.07703125 64.37320313 -41.6015625 63.53515625 C-37.90283303 56.26727064 -36.20798834 48.42631321 -34.22998047 40.56445312 C-30.21433093 24.72852408 -24.85696365 9.76998203 -10.125 0.953125 C-6.46479595 -0.68858417 -3.96733494 -0.60518669 0 0 Z " fill="#45964E" transform="translate(823,378)"/>
<path d="M0 0 C18.68873305 6.62656058 26.97473833 26.5443451 35.109375 43.1796875 C45.89932888 65.15053562 60.58506282 79.83299659 83.671875 88.35546875 C89.11690052 90.09310938 94.33706781 91.21961066 100 92 C99.21463867 91.61779297 98.42927734 91.23558594 97.62011719 90.84179688 C94.64207744 89.38734432 91.66807638 87.92516857 88.69628906 86.45800781 C87.4217288 85.83064022 86.14573394 85.20617681 84.86816406 84.58496094 C51.80804989 68.49744081 51.80804989 68.49744081 46 53 C45.33747379 48.58315863 45.43373265 46.8682766 47.875 43.125 C50.3317166 40.6682834 51.2407432 40.07980509 54.67578125 39.71875 C58.74866895 40.06334214 61.67189258 41.57337269 65.1875 43.5 C78.6261954 50.51780991 92.28991777 56.2384447 107 60 C135.08071988 67.26102888 160.72739262 79.57288026 176.0625 105.5625 C179 110.79138322 179 110.79138322 179 112 C162.14466089 112.30457818 145.29018824 112.5333553 128.43272114 112.67355824 C120.60419176 112.7404077 112.77737842 112.83142621 104.94995117 112.98071289 C98.12211099 113.11087237 91.29551397 113.19429061 84.46646756 113.22315043 C80.85446339 113.2400065 77.24601322 113.27918491 73.63515663 113.37449074 C48.74764681 114.00625964 48.74764681 114.00625964 41.51706219 107.4889555 C39.03663708 104.80881227 37.02995842 102.04175968 35 99 C33.70855642 97.42761541 32.40816162 95.86242186 31.08984375 94.3125 C30.0239811 92.8861465 28.97305542 91.44850697 27.9375 90 C27.36153076 89.20368164 26.78556152 88.40736328 26.19213867 87.58691406 C11.81861032 67.30648328 1.00791484 44.59079249 -7.6875 21.375 C-8.1220752 20.2185498 -8.55665039 19.06209961 -9.00439453 17.87060547 C-9.59583252 16.24469482 -9.59583252 16.24469482 -10.19921875 14.5859375 C-10.54815186 13.6273584 -10.89708496 12.6687793 -11.2565918 11.68115234 C-12.01776173 8.93594112 -12.29773332 6.83042331 -12 4 C-8.30427628 -0.14369023 -5.41270072 -0.79859519 0 0 Z " fill="#43954D" transform="translate(402,451)"/>
<path d="M0 0 C5.30281305 11.6661887 4.34316009 27.16975051 0 39 C-3.13815414 45.87147543 -6.79784923 52.80121992 -12.9140625 57.45703125 C-23.39956237 65.52733171 -24.54768258 77.6779772 -26.1887207 90.01611328 C-26.78143638 94.49522901 -26.78143638 94.49522901 -27 99 C-26.52691406 98.10539062 -26.05382812 97.21078125 -25.56640625 96.2890625 C-19.2227397 84.57067488 -12.31973176 74.95355458 0 69 C0.69480469 68.66097656 1.38960937 68.32195312 2.10546875 67.97265625 C9.10997152 65.12091685 16.57752774 65.73595948 24 66 C19.57382438 79.42412474 10.87045995 90.96746844 -1.6875 97.75 C-6.85612568 100.18038825 -12.25234852 101.52014389 -17.80078125 102.8125 C-22.56259223 104.58000981 -25.01387038 107.27864571 -27.51416016 111.64306641 C-29.24001177 115.54225466 -30.16645236 119.30389726 -31.04296875 123.4609375 C-31.21629227 124.25150543 -31.38961578 125.04207336 -31.56819153 125.8565979 C-32.11549508 128.36116329 -32.65165357 130.86796118 -33.1875 133.375 C-33.55850886 135.08219135 -33.93024624 136.78922455 -34.30273438 138.49609375 C-35.2102607 142.66228032 -36.10780534 146.83050443 -37 151 C-33.66334991 147.7549734 -31.30472428 145.08569485 -29.3125 140.875 C-23.91865242 130.61421025 -16.07172221 122.39298058 -5.3515625 117.88671875 C-1.0342786 116.74450028 2.93421298 116.78292627 7.375 116.875 C8.20644531 116.88402344 9.03789063 116.89304687 9.89453125 116.90234375 C11.92981337 116.9257378 13.96494564 116.96160275 16 117 C14.47523366 127.46370903 6.58802999 137.03292173 -1 144 C-8.16109235 149.33416801 -15.77298038 152.25464381 -24.5 153.8125 C-33.30929011 155.70020502 -39.81683761 161.9105303 -45 169 C-46.5867358 171.56700287 -48.09937074 174.15071804 -49.54296875 176.80078125 C-51.92722178 180.39953314 -54.04033044 181.79699298 -58.25 182.6875 C-59.1575 182.790625 -60.065 182.89375 -61 183 C-58.48269882 178.28841416 -55.87948286 173.75317454 -52.8125 169.375 C-48.51324569 162.98690491 -47.14745164 156.6170304 -48 149 C-49.67264885 143.77297235 -52.88084711 141.18989987 -56.9453125 137.765625 C-65.07859014 130.77657273 -69.69531559 121.69841217 -71 111 C-71.08911585 108.79307214 -71.13017265 106.58372032 -71.125 104.375 C-71.12757813 103.26898438 -71.13015625 102.16296875 -71.1328125 101.0234375 C-71.0214448 98.4881845 -70.74088772 96.41082513 -70 94 C-62.60199935 95.04178619 -56.35900338 99.92479769 -51.6875 105.625 C-43.39358087 118.06587869 -43.09961078 130.49393647 -43 145 C-34.4647041 120.55231283 -34.4647041 120.55231283 -36.3125 95.5625 C-38.85979077 91.26849555 -43.04468011 89.30966852 -47.2421875 86.8359375 C-55.66564141 81.22825572 -59.90089302 71.64156751 -62 62 C-62.21513284 58.81494922 -62.18510567 55.62914205 -62.1875 52.4375 C-62.19974609 51.57447266 -62.21199219 50.71144531 -62.22460938 49.82226562 C-62.22654297 48.99275391 -62.22847656 48.16324219 -62.23046875 47.30859375 C-62.23457764 46.55376709 -62.23868652 45.79894043 -62.24291992 45.02124023 C-62 43 -62 43 -60 40 C-46.67221536 48.73953091 -37.6663111 57.97686259 -34 74 C-33.78480083 76.98665222 -33.80833513 79.94527283 -33.875 82.9375 C-33.88402344 83.71673828 -33.89304687 84.49597656 -33.90234375 85.29882812 C-33.92566309 87.19935447 -33.96152414 89.09972008 -34 91 C-33.34 91 -32.68 91 -32 91 C-31.98582031 90.41476562 -31.97164062 89.82953125 -31.95703125 89.2265625 C-31.65960964 83.87297347 -30.79470862 79.13003447 -29.14135742 74.05761719 C-26.42313737 65.62858934 -25.74461136 58.23046812 -26 49.375 C-26.41489642 32.98288683 -23.01572276 20.75200679 -11.65625 8.46484375 C-3.39263074 0 -3.39263074 0 0 0 Z " fill="#42934A" transform="translate(779,244)"/>
<path d="M0 0 C2.23394082 1.48192114 4.06181259 3.28056259 5.953125 5.171875 C6.283125 3.521875 6.613125 1.871875 6.953125 0.171875 C14.213125 0.171875 21.473125 0.171875 28.953125 0.171875 C28.953125 1.821875 28.953125 3.471875 28.953125 5.171875 C26.643125 5.171875 24.333125 5.171875 21.953125 5.171875 C21.95978683 5.75989899 21.96644867 6.34792297 21.97331238 6.95376587 C22.03979384 13.08582073 22.08497877 19.21777282 22.11791992 25.35009766 C22.13298616 27.63724935 22.15344297 29.92437225 22.17944336 32.21142578 C22.21592106 35.50300207 22.23287334 38.79419562 22.24609375 42.0859375 C22.26157761 43.10491119 22.27706146 44.12388489 22.29301453 45.17373657 C22.29450944 51.5107917 21.59932184 55.87131971 17.515625 60.96484375 C9.36647768 68.23795774 -0.70624702 68.78730386 -11.20703125 68.4765625 C-16.22295736 68.07855412 -20.34688473 66.93437135 -25.046875 65.171875 C-25.046875 61.541875 -25.046875 57.911875 -25.046875 54.171875 C-23.066875 54.171875 -21.086875 54.171875 -19.046875 54.171875 C-18.799375 54.935 -18.551875 55.698125 -18.296875 56.484375 C-16.87753587 59.53595412 -15.90436241 60.45935664 -13.046875 62.171875 C-8.18345259 62.91117319 -3.54823053 62.78467317 1.015625 60.921875 C4.70146506 57.59272914 5.23241054 54.26187748 5.578125 49.421875 C5.65289063 48.43703125 5.72765625 47.4521875 5.8046875 46.4375 C5.85367188 45.68984375 5.90265625 44.9421875 5.953125 44.171875 C5.025 44.81125 4.096875 45.450625 3.140625 46.109375 C-2.40305991 49.69646524 -7.58987959 49.95694685 -14.046875 49.171875 C-20.50993117 46.59307279 -24.52910587 42.18862898 -27.625 36.03515625 C-29.34471141 31.92501915 -29.54709348 28.1498545 -29.484375 23.734375 C-29.47607666 22.98373779 -29.46777832 22.23310059 -29.45922852 21.4597168 C-29.25522004 14.79568201 -28.08555006 10.29515354 -23.36328125 5.44140625 C-16.79746881 -0.50312501 -8.78271472 -3.55331206 0 0 Z " fill="#1C3F7D" transform="translate(579.046875,631.828125)"/>
<path d="M0 0 C5.01098677 3.64014381 10.66577793 8.48246522 12.99609375 14.34765625 C13.37509209 18.23819021 11.30208665 21.17586314 9.1875 24.3125 C0.80008023 34.30339708 -13.35614749 37.74773022 -25.90625 38.859375 C-39.17814628 39.54974292 -47.08852673 37.12111988 -57.8828125 29.578125 C-62.52294529 26.53479904 -67.72528416 24.48894364 -72.8125 22.3125 C-68.23294037 9.52513061 -55.78465504 2.51185573 -44.2421875 -3.20703125 C-29.84587805 -9.42138351 -13.39663556 -8.20715387 0 0 Z " fill="#2A558B" transform="translate(283.8125,453.6875)"/>
<path d="M0 0 C7.26 0 14.52 0 22 0 C22 21.45 22 42.9 22 65 C24.31 65 26.62 65 29 65 C29 66.65 29 68.3 29 70 C21.74 70 14.48 70 7 70 C6.67 68.35 6.34 66.7 6 65 C5.071875 65.804375 4.14375 66.60875 3.1875 67.4375 C-1.22226702 71.25929808 -5.47695897 71.4000976 -11.140625 71.34765625 C-16.80539029 70.65890746 -20.4342043 67.6081145 -24.3125 63.625 C-28.199299 57.57886822 -29.53820864 52.6525465 -29.4375 45.5625 C-29.42920166 44.81186279 -29.42090332 44.06122559 -29.41235352 43.2878418 C-29.20834504 36.62380701 -28.03867506 32.12327854 -23.31640625 27.26953125 C-18.56187105 22.96488755 -14.78696841 20.70644879 -8.25 20.5625 C-7.26515625 20.52253906 -6.2803125 20.48257813 -5.265625 20.44140625 C-2 21 -2 21 6 26 C6 19.07 6 12.14 6 5 C4.02 5 2.04 5 0 5 C0 3.35 0 1.7 0 0 Z " fill="#1B3E7C" transform="translate(413,610)"/>
<path d="M0 0 C1 2 1 2 1.25 5.25 C2.22998515 10.14992574 4.58058088 13.32803134 8.65084839 16.14083862 C10.50580413 17.18674 12.38106359 18.12222484 14.30859375 19.02734375 C15.0106041 19.36636215 15.71261444 19.70538055 16.43589783 20.05467224 C23.77916639 23.51314987 31.34073968 26.09896151 39.0625 28.5625 C40.59455684 29.06193074 42.12628492 29.56237091 43.65771484 30.0637207 C48.76527528 31.72970734 53.88176306 33.36715324 59 35 C59.94804504 35.30264771 60.89609009 35.60529541 61.87286377 35.91711426 C69.97667603 38.50319877 78.082575 41.08272672 86.18841553 43.66244507 C157.66972845 66.42216749 157.66972845 66.42216749 180 86 C181.5778125 87.175625 181.5778125 87.175625 183.1875 88.375 C189.1826568 93.97047968 194.5737687 101.07064907 195.17578125 109.4453125 C195.29967268 113.91844515 195.28902079 117.05779754 193 121 C192.61070312 120.11699219 192.22140625 119.23398437 191.8203125 118.32421875 C177.99556937 88.16575069 143.97253518 74.77943578 114.59375 63.7734375 C112.06391127 62.84480484 109.53294011 61.92006242 107 61 C106.31357422 60.74947876 105.62714844 60.49895752 104.91992188 60.24084473 C84.43943177 52.77147581 63.79607536 45.89691087 42.9755249 39.43893433 C36.07136584 37.2949831 29.17905795 35.11699603 22.30859375 32.8671875 C21.57534378 32.6312941 20.84209381 32.3954007 20.08662415 32.15235901 C11.01814935 29.1538152 0.81775899 24.73218817 -4 16 C-5.08266918 13.20310462 -5.46098026 10.97388482 -5 8 C-3.63444723 5.084495 -1.9590366 2.54878118 0 0 Z " fill="#FAFCFD" transform="translate(310,358)"/>
<path d="M0 0 C0 5.28 0 10.56 0 16 C-1.98 16 -3.96 16 -6 16 C-6.34611328 14.98679687 -6.34611328 14.98679687 -6.69921875 13.953125 C-9.12161373 7.32744388 -11.09144531 3.86121652 -17.625 0.75 C-24.06841449 -0.68186989 -30.46292313 -1.30105569 -36.4375 1.9375 C-41.77632997 5.76657887 -43.63959369 11.80070697 -45 18 C-45.93412887 30.35597731 -46.48735821 44.0576661 -38 54 C-33.10076025 57.49945697 -27.83449298 57.87388882 -22 57 C-19.69 56.01 -17.38 55.02 -15 54 C-14.67 47.73 -14.34 41.46 -14 35 C-16.64 35 -19.28 35 -22 35 C-22 33.35 -22 31.7 -22 30 C-14.08 30 -6.16 30 2 30 C2 38.58 2 47.16 2 56 C-12.53461016 62.45982674 -28.50224572 66.63158278 -44.25 61.375 C-54.35331467 56.82139339 -59.95703084 50.46152711 -64.140625 40.203125 C-66.78507573 30.34653593 -66.09814149 18.8882072 -61 10 C-60.649375 9.35804688 -60.29875 8.71609375 -59.9375 8.0546875 C-55.55650189 1.02683637 -48.03256685 -3.45329228 -40.12890625 -5.53125 C-25.69796583 -7.69318864 -13.33304299 -5.71416128 0 0 Z " fill="#1B3F7C" transform="translate(711,618)"/>
<path d="M0 0 C4.53365101 4.00648228 6.45735052 7.88080555 7.00708008 13.83837891 C7.08068135 17.85837422 7.03753519 21.85660542 6.9375 25.875 C6.91740166 27.28382874 6.89915678 28.69268521 6.8828125 30.1015625 C6.83589203 33.52675664 6.77024777 36.95051524 6.6875 40.375 C8.9975 40.375 11.3075 40.375 13.6875 40.375 C13.6875 42.025 13.6875 43.675 13.6875 45.375 C6.0975 45.375 -1.4925 45.375 -9.3125 45.375 C-9.3125 43.725 -9.3125 42.075 -9.3125 40.375 C-10.12654297 40.89900391 -10.12654297 40.89900391 -10.95703125 41.43359375 C-11.67246094 41.88863281 -12.38789062 42.34367188 -13.125 42.8125 C-14.18654297 43.49119141 -14.18654297 43.49119141 -15.26953125 44.18359375 C-20.29580244 47.11478441 -25.66089882 46.95713918 -31.3125 46.375 C-35.90060441 44.16287823 -38.03889243 41.86424782 -40.3125 37.375 C-41.15754602 32.56675366 -41.36248921 27.6459994 -39.28125 23.14453125 C-35.62955192 18.38718014 -31.16778561 16.2400764 -25.3125 15.375 C-19.97808647 15.07357589 -14.64916708 15.19820244 -9.3125 15.375 C-9.56912245 13.93489519 -9.84340821 12.4979313 -10.125 11.0625 C-10.27582031 10.26199219 -10.42664063 9.46148438 -10.58203125 8.63671875 C-11.40628833 6.08460726 -12.21975641 5.02183212 -14.3125 3.375 C-18.02527738 2.13740754 -21.45437846 1.81846785 -25.3125 2.375 C-28.75562714 4.4994827 -30.02867547 5.52352641 -31.3125 9.375 C-33.2925 9.375 -35.2725 9.375 -37.3125 9.375 C-37.3125 6.075 -37.3125 2.775 -37.3125 -0.625 C-25.91128113 -5.51123666 -11.22123163 -5.50475514 0 0 Z " fill="#1E407E" transform="translate(813.3125,634.625)"/>
<path d="M0 0 C4.53365101 4.00648228 6.45735052 7.88080555 7.00708008 13.83837891 C7.08068135 17.85837422 7.03753519 21.85660542 6.9375 25.875 C6.91740166 27.28382874 6.89915678 28.69268521 6.8828125 30.1015625 C6.83589203 33.52675664 6.77024777 36.95051524 6.6875 40.375 C8.9975 40.375 11.3075 40.375 13.6875 40.375 C13.6875 42.025 13.6875 43.675 13.6875 45.375 C6.0975 45.375 -1.4925 45.375 -9.3125 45.375 C-9.3125 43.725 -9.3125 42.075 -9.3125 40.375 C-10.12654297 40.89900391 -10.12654297 40.89900391 -10.95703125 41.43359375 C-11.67246094 41.88863281 -12.38789063 42.34367188 -13.125 42.8125 C-14.18654297 43.49119141 -14.18654297 43.49119141 -15.26953125 44.18359375 C-20.29580244 47.11478441 -25.66089882 46.95713918 -31.3125 46.375 C-35.90060441 44.16287823 -38.03889243 41.86424782 -40.3125 37.375 C-41.15754602 32.56675366 -41.36248921 27.6459994 -39.28125 23.14453125 C-35.62955192 18.38718014 -31.16778561 16.2400764 -25.3125 15.375 C-19.97808647 15.07357589 -14.64916708 15.19820244 -9.3125 15.375 C-9.56912245 13.93489519 -9.84340821 12.4979313 -10.125 11.0625 C-10.27582031 10.26199219 -10.42664063 9.46148438 -10.58203125 8.63671875 C-11.40628833 6.08460726 -12.21975641 5.02183212 -14.3125 3.375 C-18.02527738 2.13740754 -21.45437846 1.81846785 -25.3125 2.375 C-28.75562714 4.4994827 -30.02867547 5.52352641 -31.3125 9.375 C-33.2925 9.375 -35.2725 9.375 -37.3125 9.375 C-37.3125 6.075 -37.3125 2.775 -37.3125 -0.625 C-25.91128113 -5.51123666 -11.22123163 -5.50475514 0 0 Z " fill="#1E407E" transform="translate(364.3125,634.625)"/>
<path d="M0 0 C4.53365101 4.00648228 6.45735052 7.88080555 7.00708008 13.83837891 C7.08068135 17.85837422 7.03753519 21.85660542 6.9375 25.875 C6.91740166 27.28382874 6.89915678 28.69268521 6.8828125 30.1015625 C6.83589203 33.52675664 6.77024777 36.95051524 6.6875 40.375 C8.9975 40.375 11.3075 40.375 13.6875 40.375 C13.6875 42.025 13.6875 43.675 13.6875 45.375 C6.0975 45.375 -1.4925 45.375 -9.3125 45.375 C-9.3125 43.725 -9.3125 42.075 -9.3125 40.375 C-10.12654297 40.89900391 -10.12654297 40.89900391 -10.95703125 41.43359375 C-11.67246094 41.88863281 -12.38789063 42.34367188 -13.125 42.8125 C-14.18654297 43.49119141 -14.18654297 43.49119141 -15.26953125 44.18359375 C-20.29580244 47.11478441 -25.66089882 46.95713918 -31.3125 46.375 C-35.90060441 44.16287823 -38.03889243 41.86424782 -40.3125 37.375 C-41.15754602 32.56675366 -41.36248921 27.6459994 -39.28125 23.14453125 C-35.62955192 18.38718014 -31.16778561 16.2400764 -25.3125 15.375 C-19.97808647 15.07357589 -14.64916708 15.19820244 -9.3125 15.375 C-9.56912245 13.93489519 -9.84340821 12.4979313 -10.125 11.0625 C-10.27582031 10.26199219 -10.42664063 9.46148438 -10.58203125 8.63671875 C-11.40628833 6.08460726 -12.21975641 5.02183212 -14.3125 3.375 C-18.02527738 2.13740754 -21.45437846 1.81846785 -25.3125 2.375 C-28.75562714 4.4994827 -30.02867547 5.52352641 -31.3125 9.375 C-33.2925 9.375 -35.2725 9.375 -37.3125 9.375 C-37.3125 6.075 -37.3125 2.775 -37.3125 -0.625 C-25.91128113 -5.51123666 -11.22123163 -5.50475514 0 0 Z " fill="#1E407E" transform="translate(196.3125,634.625)"/>
<path d="M0 0 C4.36944278 1.86791622 6.79734672 4.28789047 8.85375977 8.65820312 C10.62782541 14.84060339 10.03508755 21.50965979 9.88671875 27.88671875 C9.86662369 29.39190333 9.84837823 30.8971138 9.83203125 32.40234375 C9.78827173 36.06434612 9.71941091 39.72536453 9.63671875 43.38671875 C11.94671875 43.38671875 14.25671875 43.38671875 16.63671875 43.38671875 C16.63671875 45.03671875 16.63671875 46.68671875 16.63671875 48.38671875 C7.06671875 48.38671875 -2.50328125 48.38671875 -12.36328125 48.38671875 C-12.36328125 46.73671875 -12.36328125 45.08671875 -12.36328125 43.38671875 C-10.38328125 43.38671875 -8.40328125 43.38671875 -6.36328125 43.38671875 C-6.43212597 38.74141196 -6.52007429 34.09700816 -6.62573242 29.45239258 C-6.65898313 27.87241632 -6.68701471 26.29232123 -6.7097168 24.7121582 C-6.74326141 22.44040296 -6.79557352 20.16973672 -6.8515625 17.8984375 C-6.85795242 17.19208664 -6.86434235 16.48573578 -6.8709259 15.75798035 C-6.9574668 12.87042911 -7.03831162 10.85478563 -8.71166992 8.44458008 C-11.36555017 6.74476291 -13.2974587 6.9487441 -16.36328125 7.38671875 C-18.66603681 9.25381785 -20.04151996 10.74319616 -21.36328125 13.38671875 C-21.51823888 15.63646036 -21.61339053 17.89043411 -21.6796875 20.14453125 C-21.7004686 20.8075827 -21.72124969 21.47063416 -21.74266052 22.15377808 C-21.80807356 24.27298569 -21.8670023 26.39231775 -21.92578125 28.51171875 C-21.96897434 29.94792956 -22.01258889 31.38412777 -22.05664062 32.8203125 C-22.16374624 36.34231469 -22.265037 39.864457 -22.36328125 43.38671875 C-20.38328125 43.38671875 -18.40328125 43.38671875 -16.36328125 43.38671875 C-16.36328125 45.03671875 -16.36328125 46.68671875 -16.36328125 48.38671875 C-25.93328125 48.38671875 -35.50328125 48.38671875 -45.36328125 48.38671875 C-45.36328125 46.73671875 -45.36328125 45.08671875 -45.36328125 43.38671875 C-43.05328125 43.38671875 -40.74328125 43.38671875 -38.36328125 43.38671875 C-38.36328125 30.84671875 -38.36328125 18.30671875 -38.36328125 5.38671875 C-40.67328125 5.38671875 -42.98328125 5.38671875 -45.36328125 5.38671875 C-45.36328125 3.73671875 -45.36328125 2.08671875 -45.36328125 0.38671875 C-37.77328125 0.38671875 -30.18328125 0.38671875 -22.36328125 0.38671875 C-22.03328125 2.03671875 -21.70328125 3.68671875 -21.36328125 5.38671875 C-20.41453125 4.58234375 -19.46578125 3.77796875 -18.48828125 2.94921875 C-13.05727281 -1.65533188 -6.85007929 -1.77762388 0 0 Z " fill="#193D7B" transform="translate(527.36328125,631.61328125)"/>
<path d="M0 0 C0 5.28 0 10.56 0 16 C-1.98 16 -3.96 16 -6 16 C-6.23074219 15.40832031 -6.46148437 14.81664062 -6.69921875 14.20703125 C-9.1315885 8.313582 -11.554078 4.0675532 -17.1875 0.6875 C-22.6973555 -0.65935357 -28.55549078 -1.06370012 -33.8125 1.375 C-39.18301605 4.90455901 -41.70300457 11.92827433 -43 18 C-43.93412887 30.35597731 -44.48735821 44.0576661 -36 54 C-31.00095518 57.5707463 -25.93021384 57.705058 -20 57 C-15.2663255 55.33444786 -12.73093326 53.19393323 -10 49 C-8.74443113 45.82078213 -8.74443113 45.82078213 -8 43 C-5.03 43 -2.06 43 1 43 C0.70038642 48.99227151 -1.9871195 52.77020704 -6 57 C-14.57223915 63.80972269 -25.58453823 63.83540683 -36 63 C-44.7741846 61.33245726 -51.21660112 56.71082681 -57 50 C-63.35999419 39.882492 -64.82096409 28.60021593 -62.3515625 16.9375 C-58.93395191 7.59018899 -51.85391667 0.60121045 -43.15625 -3.96875 C-29.88379948 -9.48192175 -12.42173194 -6.21086597 0 0 Z " fill="#1C3F7C" transform="translate(146,618)"/>
<path d="M0 0 C5.71444495 3.66853256 9.40856438 8.32783204 11 15 C11 17.97 11 20.94 11 24 C0.44 24 -10.12 24 -21 24 C-20.00320089 34.94134136 -20.00320089 34.94134136 -16.875 39.25 C-13.07778345 41.5613492 -10.33092827 41.78185115 -6 41 C-3.058779 39.88887207 -1.55963001 39.01545767 -0.03125 36.2421875 C0.71951532 34.52515941 1.36760131 32.7640595 2 31 C4.64 31 7.28 31 10 31 C8.64364975 37.288533 6.65955702 40.2281573 1.421875 44.1953125 C-5.6984959 48.62232571 -14.82315353 48.00640791 -22.79296875 46.45703125 C-29.22184549 44.50790782 -33.32325097 41.5524559 -36.8125 35.75 C-40.29845732 28.31476191 -40.31649729 19.35593619 -38.37109375 11.44140625 C-35.70944852 5.31842866 -30.25783493 0.33962884 -24.140625 -2.17578125 C-16.27033428 -4.24124312 -7.16297991 -4.16525704 0 0 Z " fill="#1C3F7D" transform="translate(928,634)"/>
<path d="M0 0 C0.2475 0.515625 0.495 1.03125 0.75 1.5625 C1.1625 2.366875 1.575 3.17125 2 4 C2.495 5.0725 2.99 6.145 3.5 7.25 C14.39797175 25.55548991 44.34858657 33.14226508 63.07836914 40.16601562 C103.13071656 55.26143313 103.13071656 55.26143313 112.4375 73.875 C113.93662403 82.20346685 112.3182998 88.80443759 107.69921875 95.828125 C105.40393065 98.76187255 103.02619654 100.83843105 100 103 C99.34 102.67 98.68 102.34 98 102 C98.32097656 101.14921875 98.64195312 100.2984375 98.97265625 99.421875 C101.19475998 92.02049527 101.25750756 83.74215477 98.0625 76.625 C88.9233227 61.10611999 69.08535603 53.80201598 53.125 47.5 C43.79696904 43.79947586 34.63218659 39.99469262 25.74609375 35.3125 C25.05609283 34.95007202 24.36609192 34.58764404 23.65518188 34.2142334 C13.5755275 28.77305487 1.30945974 20.00334136 -3 9 C-2.55555556 2.55555556 -2.55555556 2.55555556 0 0 Z " fill="#F9FCFD" transform="translate(240,374)"/>
<path d="M0 0 C0 3.96 0 7.92 0 12 C-1.98 12 -3.96 12 -6 12 C-6.5878125 10.329375 -6.5878125 10.329375 -7.1875 8.625 C-8.30594239 6.07371437 -8.76575794 5.15845786 -11.125 3.5625 C-16.14241415 2.58083201 -21.02854386 1.8459769 -25.5625 4.5 C-26.036875 4.995 -26.51125 5.49 -27 6 C-26.67 7.98 -26.34 9.96 -26 12 C-25.39003174 12.19110352 -24.78006348 12.38220703 -24.15161133 12.57910156 C-21.36821086 13.45815365 -18.59045216 14.3538864 -15.8125 15.25 C-14.85279297 15.55035156 -13.89308594 15.85070312 -12.90429688 16.16015625 C-7.11916684 18.04182484 -2.18152587 19.65499367 1.2890625 24.9765625 C2.58030609 28.65164041 2.5332644 32.16716213 2 36 C-0.38062325 40.85280894 -3.2917301 43.4056472 -8 46 C-19.36439709 48.96889959 -30.88154361 46.75095828 -42 44 C-42 39.71 -42 35.42 -42 31 C-40.02 31 -38.04 31 -36 31 C-35.34895833 32.72526042 -34.69791667 34.45052083 -34.046875 36.17578125 C-32.68497893 38.54893598 -31.3596343 39.61936291 -29 41 C-26.55065593 41.43438809 -26.55065593 41.43438809 -24 41.3125 C-22.7315625 41.30669922 -22.7315625 41.30669922 -21.4375 41.30078125 C-18.88462271 40.98576274 -17.20986065 40.28396996 -15 39 C-14.58274322 35.62599422 -14.58274322 35.62599422 -15 32 C-18.66621108 29.17295919 -22.56447246 28.14711919 -27 27 C-32.44822957 25.59097511 -37.0145294 24.25932862 -40.8125 19.9375 C-42.57404996 15.57998167 -42.63959954 11.63337808 -42 7 C-40.27119451 2.94106537 -38.15123243 0.76165018 -34.375 -1.375 C-23.73587457 -5.58485261 -10.46712436 -3.58872835 0 0 Z " fill="#1E417E" transform="translate(258,634)"/>
<path d="M0 0 C5.34778184 3.53862166 9.38576043 7.36348466 13.30859375 12.421875 C9.65634252 16.68081248 4.4915285 17.74441064 -0.69140625 19.421875 C-1.36558594 19.64101563 -2.03976563 19.86015625 -2.734375 20.0859375 C-12.6877177 22.9297497 -23.43234125 22.53073688 -33.69140625 22.609375 C-34.69502197 22.62242676 -35.6986377 22.63547852 -36.73266602 22.64892578 C-37.68842529 22.65005371 -38.64418457 22.65118164 -39.62890625 22.65234375 C-40.91087891 22.65850708 -40.91087891 22.65850708 -42.21875 22.66479492 C-45.04748589 22.38689285 -47.15649004 21.70023686 -49.69140625 20.421875 C-50.85268324 17.53568868 -50.85295655 15.97096947 -49.9765625 12.9921875 C-45.60067764 4.24041778 -39.86747235 -1.60234348 -30.5234375 -4.91796875 C-19.5890317 -7.46681645 -9.56894044 -5.61081558 0 0 Z " fill="#2A568B" transform="translate(220.69140625,487.578125)"/>
<path d="M0 0 C0 3 0 3 -1.22265625 4.5078125 C-11.92947261 13.91889949 -24.54587656 20.46091271 -38 25 C-38.68545898 25.23251465 -39.37091797 25.4650293 -40.07714844 25.70458984 C-52.5698658 29.82093176 -65.37430938 32.3676778 -78.25 34.9375 C-102.75551752 39.83779215 -128.16095489 45.30068965 -150.55078125 56.828125 C-151.76314453 57.40820312 -151.76314453 57.40820312 -153 58 C-153.66 57.67 -154.32 57.34 -155 57 C-134.67307671 37.34859379 -106.4709998 30.21939732 -79.58056641 24.73486328 C-72.90003932 23.3637746 -66.22959144 21.94581626 -59.56082153 20.51876831 C-57.20246548 20.01649818 -54.84245453 19.52269249 -52.48217773 19.02954102 C-33.98512251 15.11550697 -16.05437448 10.33589153 0 0 Z " fill="#F8FBFD" transform="translate(354,488)"/>
<path d="M0 0 C0 4.29 0 8.58 0 13 C-1.65 13 -3.3 13 -5 13 C-5.5878125 11.1128125 -5.5878125 11.1128125 -6.1875 9.1875 C-7.27423681 6.34487824 -7.89641022 5.09471066 -10.1875 3 C-13.90501538 1.67821675 -17.10993503 1.13554112 -21 2 C-23.69105198 4.17574416 -25.45532928 5.91065856 -27 9 C-27.26894921 12.74409898 -27.23162708 16.49733057 -27.25 20.25 C-27.270625 21.28769531 -27.29125 22.32539062 -27.3125 23.39453125 C-27.34099776 28.97296841 -27.31345827 33.26206435 -24 38 C-20.27420911 40.48386059 -18.41288598 40.3804212 -14 40 C-11.10836386 38.88277695 -9.54290259 37.98114926 -8.02734375 35.2421875 C-7.27968717 33.5243161 -6.63224006 31.76361702 -6 30 C-3.36 30 -0.72 30 2 30 C-0.24893688 36.98354084 -2.53066183 40.90394152 -9 44.8125 C-16.38524784 47.63437418 -25.74034707 46.91001841 -33.00390625 44.03125 C-38.88084502 40.99502332 -42.91132498 36.96052278 -45.33984375 30.7578125 C-47.03935554 23.65807684 -47.45442244 15.22884056 -44.4375 8.4375 C-41.18671282 3.17214048 -36.01563272 -1.31923379 -30.20703125 -3.53515625 C-19.86545841 -5.71329283 -9.62349095 -3.84939638 0 0 Z " fill="#1D407D" transform="translate(879,635)"/>
<path d="M0 0 C0 4.29 0 8.58 0 13 C-1.65 13 -3.3 13 -5 13 C-5.5878125 11.1128125 -5.5878125 11.1128125 -6.1875 9.1875 C-7.27423681 6.34487824 -7.89641022 5.09471066 -10.1875 3 C-13.90501538 1.67821675 -17.10993503 1.13554112 -21 2 C-23.69105198 4.17574416 -25.45532928 5.91065856 -27 9 C-27.26894921 12.74409898 -27.23162708 16.49733057 -27.25 20.25 C-27.270625 21.28769531 -27.29125 22.32539062 -27.3125 23.39453125 C-27.34099776 28.97296841 -27.31345827 33.26206435 -24 38 C-20.27420911 40.48386059 -18.41288598 40.3804212 -14 40 C-11.10836386 38.88277695 -9.54290259 37.98114926 -8.02734375 35.2421875 C-7.27968717 33.5243161 -6.63224006 31.76361702 -6 30 C-3.36 30 -0.72 30 2 30 C-0.24893688 36.98354084 -2.53066183 40.90394152 -9 44.8125 C-16.38524784 47.63437418 -25.74034707 46.91001841 -33.00390625 44.03125 C-38.88084502 40.99502332 -42.91132498 36.96052278 -45.33984375 30.7578125 C-47.03935554 23.65807684 -47.45442244 15.22884056 -44.4375 8.4375 C-41.18671282 3.17214048 -36.01563272 -1.31923379 -30.20703125 -3.53515625 C-19.86545841 -5.71329283 -9.62349095 -3.84939638 0 0 Z " fill="#1D407D" transform="translate(314,635)"/>
<path d="M0 0 C3.09375 0.061875 3.09375 0.061875 6.25 0.125 C6.25 5.075 6.25 10.025 6.25 15.125 C4.6 15.125 2.95 15.125 1.25 15.125 C0.96125 14.155625 0.6725 13.18625 0.375 12.1875 C-0.39214682 9.01835797 -0.39214682 9.01835797 -2.75 8.125 C-6.481852 7.71034978 -8.26437526 7.827003 -11.5 9.8125 C-15.50087393 13.92450932 -16.00476903 17.91771095 -16.1640625 23.51953125 C-16.20273437 24.72158203 -16.24140625 25.92363281 -16.28125 27.16210938 C-16.3121875 28.40798828 -16.343125 29.65386719 -16.375 30.9375 C-16.41367187 32.20271484 -16.45234375 33.46792969 -16.4921875 34.77148438 C-16.58630657 37.88917851 -16.67194361 41.00686914 -16.75 44.125 C-14.11 44.125 -11.47 44.125 -8.75 44.125 C-8.75 45.775 -8.75 47.425 -8.75 49.125 C-18.98 49.125 -29.21 49.125 -39.75 49.125 C-39.75 47.475 -39.75 45.825 -39.75 44.125 C-37.44 44.125 -35.13 44.125 -32.75 44.125 C-32.75 31.585 -32.75 19.045 -32.75 6.125 C-35.06 6.125 -37.37 6.125 -39.75 6.125 C-39.75 4.475 -39.75 2.825 -39.75 1.125 C-32.16 1.125 -24.57 1.125 -16.75 1.125 C-16.42 3.105 -16.09 5.085 -15.75 7.125 C-15.0075 6.34125 -14.265 5.5575 -13.5 4.75 C-8.9837576 0.43904134 -6.24407875 -0.12488158 0 0 Z " fill="#193D7B" transform="translate(763.75,630.875)"/>
<path d="M0 0 C7.59 0 15.18 0 23 0 C23 14.19 23 28.38 23 43 C25.31 43 27.62 43 30 43 C30 44.65 30 46.3 30 48 C20.1 48 10.2 48 0 48 C0 46.35 0 44.7 0 43 C2.31 43 4.62 43 7 43 C7 30.46 7 17.92 7 5 C4.69 5 2.38 5 0 5 C0 3.35 0 1.7 0 0 Z " fill="#193D7B" transform="translate(447,632)"/>
<path d="M0 0 C-3.15373255 2.10248836 -5.46331348 2.77498479 -9.1171875 3.69921875 C-10.3539624 4.01761719 -11.5907373 4.33601563 -12.86499023 4.6640625 C-13.51942108 4.83067383 -14.17385193 4.99728516 -14.84811401 5.16894531 C-45.15647788 11.42366024 -45.15647788 11.42366024 -70.87109375 27.0234375 C-72.6501815 30.13838006 -72.4309429 32.49089351 -72 36 C-70.10183458 38.7905817 -70.10183458 38.7905817 -68 41 C-68 41.66 -68 42.32 -68 43 C-67.42121094 43.26554687 -66.84242188 43.53109375 -66.24609375 43.8046875 C-63.91926145 45.04296695 -62.09337076 46.44884947 -60.0625 48.125 C-54.37474724 52.64286382 -48.23372966 56.29059363 -42 60 C-44 61 -44 61 -45.96435547 60.49023438 C-46.75729004 60.19439453 -47.55022461 59.89855469 -48.3671875 59.59375 C-49.24737549 59.26560303 -50.12756348 58.93745605 -51.03442383 58.59936523 C-51.97181396 58.23657471 -52.9092041 57.87378418 -53.875 57.5 C-54.82721436 57.13269775 -55.77942871 56.76539551 -56.76049805 56.38696289 C-68.04915183 51.92780533 -80.05331687 46.4200247 -87 36 C-87.60265127 32.58497613 -87.60561368 30.17823672 -85.99609375 27.046875 C-72.0817583 8.59130735 -38.81584715 5.85615103 -18 2 C-16.99702881 1.80873535 -15.99405762 1.6174707 -14.96069336 1.42041016 C-13.50481812 1.14656494 -13.50481812 1.14656494 -12.01953125 0.8671875 C-11.15432861 0.70331543 -10.28912598 0.53944336 -9.39770508 0.37060547 C-6.2094109 -0.12219878 -3.21838786 -0.14303946 0 0 Z " fill="#F8FBFD" transform="translate(347,334)"/>
<path d="M0 0 C8.91 0 17.82 0 27 0 C27 9.57 27 19.14 27 29 C18.09 29 9.18 29 0 29 C0 19.43 0 9.86 0 0 Z " fill="#F8FAFB" transform="translate(565,284)"/>
<path d="M0 0 C8.91 0 17.82 0 27 0 C27 9.57 27 19.14 27 29 C18.09 29 9.18 29 0 29 C0 19.43 0 9.86 0 0 Z " fill="#FAFBFC" transform="translate(565,245)"/>
<path d="M0 0 C8.58 0 17.16 0 26 0 C26 9.57 26 19.14 26 29 C17.42 29 8.84 29 0 29 C0 19.43 0 9.86 0 0 Z " fill="#FCFCFD" transform="translate(528,245)"/>
<path d="M0 0 C8.58 0 17.16 0 26 0 C26 9.24 26 18.48 26 28 C17.42 28 8.84 28 0 28 C0 18.76 0 9.52 0 0 Z " fill="#FDFDFE" transform="translate(528,285)"/>
<path d="M0 0 C2.69990662 1.79993774 4.5418865 3.083773 6 6 C6.29599687 9.93124675 6.27802989 13.8714177 6.3125 17.8125 C6.34150391 18.90626953 6.37050781 20.00003906 6.40039062 21.12695312 C6.46446942 29.21566916 6.46446942 29.21566916 4.10546875 33.19921875 C1.61626348 35.32820508 0.43435348 35.9324339 -2.8125 36.4375 C-6.43433544 35.94038533 -7.73204782 34.92769068 -9.96801758 32.0793457 C-12.1600333 27.66264404 -11.5845679 22.69075271 -11.4375 17.875 C-11.43169922 16.79089844 -11.42589844 15.70679688 -11.41992188 14.58984375 C-11.27940862 5.4958261 -11.27940862 5.4958261 -9 2 C-5.48746854 -0.34168764 -4.13530644 -0.49623677 0 0 Z " fill="#FBFCFD" transform="translate(579,638)"/>
<path d="M0 0 C2.69990662 1.79993774 4.5418865 3.083773 6 6 C6.29599687 9.93124675 6.27802989 13.8714177 6.3125 17.8125 C6.34150391 18.90626953 6.37050781 20.00003906 6.40039062 21.12695312 C6.46446942 29.21566916 6.46446942 29.21566916 4.10546875 33.19921875 C1.61626348 35.32820508 0.43435348 35.9324339 -2.8125 36.4375 C-6.43433544 35.94038533 -7.73204782 34.92769068 -9.96801758 32.0793457 C-12.1600333 27.66264404 -11.5845679 22.69075271 -11.4375 17.875 C-11.43169922 16.79089844 -11.42589844 15.70679688 -11.41992188 14.58984375 C-11.27940862 5.4958261 -11.27940862 5.4958261 -9 2 C-5.48746854 -0.34168764 -4.13530644 -0.49623677 0 0 Z " fill="#FBFCFD" transform="translate(413,638)"/>
<path d="M0 0 C1.52170431 3.04340863 0.42257827 5.17145961 -0.36328125 8.44140625 C-0.51532516 9.08311264 -0.66736908 9.72481903 -0.82402039 10.38597107 C-1.31367542 12.44643034 -1.81284155 14.50444606 -2.3125 16.5625 C-2.6380207 17.9223704 -2.96289776 19.28239503 -3.28710938 20.64257812 C-3.90995897 23.25463946 -4.53543247 25.866016 -5.16259766 28.47705078 C-6.15272166 32.6424996 -7.08934714 36.81654395 -8 41 C-6.02 39.35 -4.04 37.7 -2 36 C-2.33 37.32 -2.66 38.64 -3 40 C-1.515 39.505 -1.515 39.505 0 39 C0.33 39.99 0.66 40.98 1 42 C2.98 42 4.96 42 7 42 C4.90726278 43.06320672 2.81113226 44.08446849 0.66796875 45.04296875 C-9.68340824 49.81927341 -14.55324421 56.38450106 -20.10546875 66.109375 C-22.72637016 70.10827612 -24.5758738 71.69874253 -29.25 72.6875 C-30.1575 72.790625 -31.065 72.89375 -32 73 C-29.48269882 68.28841416 -26.87948286 63.75317454 -23.8125 59.375 C-19.53875017 53.02480103 -18.08021567 46.58488821 -19 39 C-19.79813484 36.48564457 -20.7939235 34.36189981 -22 32 C-21.34 32 -20.68 32 -20 32 C-18.68 34.64 -17.36 37.28 -16 40 C-12.77732121 32.61348783 -10.61472103 25.20492553 -8.75 17.375 C-8.481875 16.27542969 -8.21375 15.17585938 -7.9375 14.04296875 C-7.28510597 11.36349327 -6.63941519 8.68259657 -6 6 C-5.67 6 -5.34 6 -5 6 C-5 7.65 -5 9.3 -5 11 C-4.34 11 -3.68 11 -3 11 C-3.05220703 10.06027344 -3.05220703 10.06027344 -3.10546875 9.1015625 C-3.13253906 8.28429687 -3.15960937 7.46703125 -3.1875 6.625 C-3.23970703 5.40683594 -3.23970703 5.40683594 -3.29296875 4.1640625 C-3.19628906 3.44992187 -3.09960938 2.73578125 -3 2 C-2.01 1.34 -1.02 0.68 0 0 Z " fill="#398D42" transform="translate(750,354)"/>
<path d="M0 0 C3.06398451 -0.13530844 6.12197126 -0.2342407 9.1875 -0.3125 C10.05181641 -0.35439453 10.91613281 -0.39628906 11.80664062 -0.43945312 C16.35590966 -0.52660387 18.34441805 -0.4966782 22.078125 2.33203125 C24 5 24 5 24.5625 8 C23.88398909 11.61872485 22.49661422 13.3473474 20 16 C20.3609375 16.62648438 20.721875 17.25296875 21.09375 17.8984375 C21.78984375 19.12433594 21.78984375 19.12433594 22.5 20.375 C22.9640625 21.18710937 23.428125 21.99921875 23.90625 22.8359375 C25 25 25 25 25 27 C26.32 27 27.64 27 29 27 C29 27.66 29 28.32 29 29 C24.669569 30.06051371 24.669569 30.06051371 22 29 C19.99478375 26.02522864 18.42721628 22.92204888 16.77734375 19.73828125 C15.28115856 16.93414066 15.28115856 16.93414066 13.00390625 15.98046875 C10.8787157 15.66311865 10.8787157 15.66311865 8 16 C8 19.63 8 23.26 8 27 C9.32 27 10.64 27 12 27 C12 27.66 12 28.32 12 29 C8.04 29 4.08 29 0 29 C0 28.34 0 27.68 0 27 C1.32 27 2.64 27 4 27 C4 18.75 4 10.5 4 2 C2.68 2 1.36 2 0 2 C0 1.34 0 0.68 0 0 Z " fill="#53A14B" transform="translate(179,712)"/>
<path d="M0 0 C0.99 0.33 1.98 0.66 3 1 C5.33299825 1.03954234 7.66708189 1.04401732 10 1 C10 1.66 10 2.32 10 3 C9.01 3 8.02 3 7 3 C7.01047363 3.61520508 7.02094727 4.23041016 7.03173828 4.86425781 C7.07338695 7.65946343 7.09935416 10.45460366 7.125 13.25 C7.15013672 14.70212891 7.15013672 14.70212891 7.17578125 16.18359375 C7.18222656 17.11816406 7.18867187 18.05273438 7.1953125 19.015625 C7.20578613 19.87446289 7.21625977 20.73330078 7.22705078 21.61816406 C6.97642325 24.24732771 6.43243 25.78976111 5 28 C1.57905758 30.28062828 0.31812778 30.21925007 -3.6875 30.125 C-5.17830078 30.09792969 -5.17830078 30.09792969 -6.69921875 30.0703125 C-7.45847656 30.04710937 -8.21773437 30.02390625 -9 30 C-9.33 28.35 -9.66 26.7 -10 25 C-9.505 25.33 -9.01 25.66 -8.5 26 C-4.90909106 27.43636358 -1.85543873 27.12851462 2 27 C2 25.02 2 23.04 2 21 C1.34 21.33 0.68 21.66 0 22 C-3.79194611 22.42132735 -5.53454193 22.28961836 -8.8125 20.25 C-12.42171474 16.53766484 -12.3409565 13.11303631 -12.29296875 7.96875 C-11.82754737 4.8411183 -10.21524663 3.15009232 -8 1 C-5.2540274 -0.3729863 -3.0410953 -0.12412634 0 0 Z " fill="#5CA553" transform="translate(671,719)"/>
<path d="M0 0 C2.31 0 4.62 0 7 0 C7 9.24 7 18.48 7 28 C7.99 28 8.98 28 10 28 C10 28.66 10 29.32 10 30 C6.66666667 30 3.33333333 30 0 30 C-1.423125 30.12375 -1.423125 30.12375 -2.875 30.25 C-6.81827452 29.93453804 -8.27042598 28.80756185 -11 26 C-12.66660244 22.41039475 -12.57827197 17.88598764 -12 14 C-10.20636089 11.1899654 -8.98119065 9.49059532 -6 8 C-0.46153846 7.76923077 -0.46153846 7.76923077 2 9 C2.33 6.69 2.66 4.38 3 2 C2.01 2 1.02 2 0 2 C0 1.34 0 0.68 0 0 Z " fill="#5BA553" transform="translate(309,711)"/>
<path d="M0 0 C3.95403662 0.26360244 5.65370756 0.86143155 8.75 3.25 C11.57644678 7.48967017 11.40911947 11.27086859 10.75 16.25 C8.64495409 19.80680172 7.66593192 20.94468936 3.75 22.25 C0.375 22.625 0.375 22.625 -3.25 22.25 C-6.40954305 19.70862841 -7.96540886 18.10377341 -9.25 14.25 C-9.75474898 9.03426052 -9.75474898 9.03426052 -9.25 6.25 C-6.8125 3.3125 -6.8125 3.3125 -4.25 1.25 C-3.25 0.25 -3.25 0.25 0 0 Z " fill="#5CA553" transform="translate(786.25,718.75)"/>
<path d="M0 0 C3.95403662 0.26360244 5.65370756 0.86143155 8.75 3.25 C11.57644678 7.48967017 11.40911947 11.27086859 10.75 16.25 C8.64495409 19.80680172 7.66593192 20.94468936 3.75 22.25 C0.375 22.625 0.375 22.625 -3.25 22.25 C-6.40954305 19.70862841 -7.96540886 18.10377341 -9.25 14.25 C-9.75474898 9.03426052 -9.75474898 9.03426052 -9.25 6.25 C-6.8125 3.3125 -6.8125 3.3125 -4.25 1.25 C-3.25 0.25 -3.25 0.25 0 0 Z " fill="#5CA553" transform="translate(571.25,718.75)"/>
<path d="M0 0 C3.95403662 0.26360244 5.65370756 0.86143155 8.75 3.25 C11.57644678 7.48967017 11.40911947 11.27086859 10.75 16.25 C8.64495409 19.80680172 7.66593192 20.94468936 3.75 22.25 C0.375 22.625 0.375 22.625 -3.25 22.25 C-6.40954305 19.70862841 -7.96540886 18.10377341 -9.25 14.25 C-9.75474898 9.03426052 -9.75474898 9.03426052 -9.25 6.25 C-6.8125 3.3125 -6.8125 3.3125 -4.25 1.25 C-3.25 0.25 -3.25 0.25 0 0 Z " fill="#5CA553" transform="translate(242.25,718.75)"/>
<path d="M0 0 C3.95403662 0.26360244 5.65370756 0.86143155 8.75 3.25 C11.57644678 7.48967017 11.40911947 11.27086859 10.75 16.25 C8.64495409 19.80680172 7.66593192 20.94468936 3.75 22.25 C0.375 22.625 0.375 22.625 -3.25 22.25 C-6.40954305 19.70862841 -7.96540886 18.10377341 -9.25 14.25 C-9.75474898 9.03426052 -9.75474898 9.03426052 -9.25 6.25 C-6.8125 3.3125 -6.8125 3.3125 -4.25 1.25 C-3.25 0.25 -3.25 0.25 0 0 Z " fill="#5CA553" transform="translate(218.25,718.75)"/>
<path d="M0 0 C2.1723823 1.60917207 2.72192865 2.70858276 3.6875 5.25 C3.8828125 8.703125 3.8828125 8.703125 3.8125 12.5 C3.79445313 13.76328125 3.77640625 15.0265625 3.7578125 16.328125 C3.73460937 17.29234375 3.71140625 18.2565625 3.6875 19.25 C4.6775 19.25 5.6675 19.25 6.6875 19.25 C6.6875 19.91 6.6875 20.57 6.6875 21.25 C3.35416667 21.25 0.02083333 21.25 -3.3125 21.25 C-5.0140625 21.37375 -5.0140625 21.37375 -6.75 21.5 C-10.3125 21.25 -10.3125 21.25 -12.75 19.625 C-14.79741197 16.5129338 -14.99801032 14.90605504 -14.3125 11.25 C-12.09707303 8.53431532 -10.49988889 7.37310721 -6.9765625 7.0078125 C-4.74010718 7.00075744 -2.54157932 7.07517025 -0.3125 7.25 C-0.6425 5.93 -0.9725 4.61 -1.3125 3.25 C-3.6225 2.92 -5.9325 2.59 -8.3125 2.25 C-9.3025 3.735 -9.3025 3.735 -10.3125 5.25 C-10.9725 5.25 -11.6325 5.25 -12.3125 5.25 C-11.9375 2.8125 -11.9375 2.8125 -11.3125 0.25 C-7.73230989 -1.54009505 -3.75053267 -1.21638897 0 0 Z " fill="#5CA654" transform="translate(430.3125,719.75)"/>
<path d="M0 0 C2.97 0 5.94 0 9 0 C9 0.66 9 1.32 9 2 C8.01 2 7.02 2 6 2 C7.32 5.63 8.64 9.26 10 13 C10.639375 11.411875 11.27875 9.82375 11.9375 8.1875 C12.29714844 7.29417969 12.65679688 6.40085937 13.02734375 5.48046875 C13.73613486 3.6729091 14.3860247 1.84192591 15 0 C16.32 0 17.64 0 19 0 C20.32 4.29 21.64 8.58 23 13 C24.66832577 10.49751135 25.62381674 8.58850813 26.625 5.8125 C26.88539063 5.09707031 27.14578125 4.38164063 27.4140625 3.64453125 C27.60742188 3.10183594 27.80078125 2.55914063 28 2 C27.01 2 26.02 2 25 2 C25 1.34 25 0.68 25 0 C27.64 0 30.28 0 33 0 C33 0.66 33 1.32 33 2 C32.01 2 31.02 2 30 2 C29.90203125 2.61746094 29.8040625 3.23492188 29.703125 3.87109375 C28.60941374 10.06564802 26.79970361 15.37341119 24 21 C23.01 21 22.02 21 21 21 C20.58427734 19.71802734 20.58427734 19.71802734 20.16015625 18.41015625 C19.79792969 17.30542969 19.43570313 16.20070313 19.0625 15.0625 C18.70285156 13.96035156 18.34320312 12.85820313 17.97265625 11.72265625 C17.26143332 9.11876525 17.26143332 9.11876525 16 8 C14.35 12.29 12.7 16.58 11 21 C10.01 21 9.02 21 8 21 C7.5625 19.6875 7.125 18.375 6.6875 17.0625 C6.41421875 16.24910156 6.1409375 15.43570313 5.859375 14.59765625 C5.29159602 12.88141524 4.73918011 11.16000653 4.203125 9.43359375 C3.95046875 8.63050781 3.6978125 7.82742188 3.4375 7 C3.20933594 6.2575 2.98117187 5.515 2.74609375 4.75 C2.13743592 2.79897553 2.13743592 2.79897553 0 2 C0 1.34 0 0.68 0 0 Z " fill="#5EA756" transform="translate(585,720)"/>
<path d="M0 0 C2.92945104 1.30197824 4.515817 2.28525367 6.3125 4.9375 C7 7 7 7 7 11 C1.72 11 -3.56 11 -9 11 C-8.34 13.64 -7.68 16.28 -7 19 C-4.03 19 -1.06 19 2 19 C2.33 17.68 2.66 16.36 3 15 C3.99 15 4.98 15 6 15 C4.55813953 19.56589147 4.55813953 19.56589147 2.3125 21.3125 C-1.02557301 22.30490009 -3.53288536 22.42578601 -7 22 C-10.01001292 19.97151303 -11.58417181 18.39636132 -12.6328125 14.875 C-13.44421569 9.76488627 -12.9971559 6.38869257 -10 2 C-6.27420911 -0.48386059 -4.41288598 -0.3804212 0 0 Z " fill="#5BA553" transform="translate(837,719)"/>
<path d="M0 0 C2.92945104 1.30197824 4.515817 2.28525367 6.3125 4.9375 C7 7 7 7 7 11 C1.72 11 -3.56 11 -9 11 C-8.34 13.64 -7.68 16.28 -7 19 C-4.03 19 -1.06 19 2 19 C2.33 17.68 2.66 16.36 3 15 C3.99 15 4.98 15 6 15 C4.55813953 19.56589147 4.55813953 19.56589147 2.3125 21.3125 C-1.02557301 22.30490009 -3.53288536 22.42578601 -7 22 C-10.01001292 19.97151303 -11.58417181 18.39636132 -12.6328125 14.875 C-13.44421569 9.76488627 -12.9971559 6.38869257 -10 2 C-6.27420911 -0.48386059 -4.41288598 -0.3804212 0 0 Z " fill="#5BA553" transform="translate(286,719)"/>
<path d="M0 0 C0.08160748 1.89510699 0.13946459 3.79124504 0.1875 5.6875 C0.22230469 6.74324219 0.25710938 7.79898438 0.29296875 8.88671875 C-0.03936945 12.41836599 -0.88321504 14.18255429 -3 17 C-6.47042703 19.31361802 -7.91834173 19.51020728 -12 19 C-14.75711879 16.14534163 -15.45158247 13.99037239 -15.5 10.0625 C-15.36072332 6.43594961 -15.04674608 5.07791013 -13.125 1.875 C-8.73773073 -0.75736156 -4.99183607 -0.43617985 0 0 Z " fill="#F8F9FB" transform="translate(804,655)"/>
<path d="M0 0 C0.08160748 1.89510699 0.13946459 3.79124504 0.1875 5.6875 C0.22230469 6.74324219 0.25710938 7.79898438 0.29296875 8.88671875 C-0.03936945 12.41836599 -0.88321504 14.18255429 -3 17 C-6.47042703 19.31361802 -7.91834173 19.51020728 -12 19 C-14.75711879 16.14534163 -15.45158247 13.99037239 -15.5 10.0625 C-15.36072332 6.43594961 -15.04674608 5.07791013 -13.125 1.875 C-8.73773073 -0.75736156 -4.99183607 -0.43617985 0 0 Z " fill="#F8F9FB" transform="translate(355,655)"/>
<path d="M0 0 C0.08160748 1.89510699 0.13946459 3.79124504 0.1875 5.6875 C0.22230469 6.74324219 0.25710937 7.79898438 0.29296875 8.88671875 C-0.03936945 12.41836599 -0.88321504 14.18255429 -3 17 C-6.47042703 19.31361802 -7.91834173 19.51020728 -12 19 C-14.75711879 16.14534163 -15.45158247 13.99037239 -15.5 10.0625 C-15.36072332 6.43594961 -15.04674608 5.07791013 -13.125 1.875 C-8.73773073 -0.75736156 -4.99183607 -0.43617985 0 0 Z " fill="#F8F9FB" transform="translate(187,655)"/>
<path d="M0 0 C2.64 0 5.28 0 8 0 C8.33 2.97 8.66 5.94 9 9 C9.66 8.67 10.32 8.34 11 8 C16.3929108 7.54102887 16.3929108 7.54102887 18.6730957 9.26489258 C20.28627211 11.37433963 20.35221638 12.38507388 20.29296875 15.01171875 C20.28330078 15.76904297 20.27363281 16.52636719 20.26367188 17.30664062 C20.23853516 18.09232422 20.21339844 18.87800781 20.1875 19.6875 C20.16719727 20.88342773 20.16719727 20.88342773 20.14648438 22.10351562 C20.11117089 24.06929967 20.05736447 26.03473582 20 28 C21.32 28 22.64 28 24 28 C24 28.66 24 29.32 24 30 C20.7 30 17.4 30 14 30 C14 29.34 14 28.68 14 28 C14.99 28 15.98 28 17 28 C16.67 22.72 16.34 17.44 16 12 C11.52297636 10.93462795 11.52297636 10.93462795 9 11 C8.67 16.61 8.34 22.22 8 28 C8.99 28 9.98 28 11 28 C11 28.66 11 29.32 11 30 C7.7 30 4.4 30 1 30 C1 29.34 1 28.68 1 28 C1.99 28 2.98 28 4 28 C4 19.42 4 10.84 4 2 C2.68 2 1.36 2 0 2 C0 1.34 0 0.68 0 0 Z " fill="#61A859" transform="translate(468,711)"/>
<path d="M0 0 C3.74093467 2.07829704 4.79149259 3.32541719 6.0625 7.4375 C5.98713481 11.73331579 5.03450339 13.05219671 2 16 C-0.85324437 17.42662219 -2.83454549 17.31033868 -6 17 C-8.875 15.5625 -8.875 15.5625 -11 13 C-11.71534153 9.85595859 -11.71534153 7.14404141 -11 4 C-7.77123438 0.10648852 -4.96361941 -0.8272699 0 0 Z " fill="#1F417E" transform="translate(464,610)"/>
<path d="M0 0 C1.0326802 2.78823655 1.04509293 3.8677274 0.0625 6.75 C-0.288125 7.4925 -0.63875 8.235 -1 9 C-0.01 9 0.98 9 2 9 C2.12375 8.030625 2.2475 7.06125 2.375 6.0625 C2.58125 5.051875 2.7875 4.04125 3 3 C3.66 2.67 4.32 2.34 5 2 C4.81824219 2.55042969 4.63648438 3.10085938 4.44921875 3.66796875 C2.16196415 11.2335032 1.08605062 18.81858903 0.1784668 26.64916992 C-0.90217103 35.22254528 -0.90217103 35.22254528 -4 39 C-4.66 39 -5.32 39 -6 39 C-6.33 43.29 -6.66 47.58 -7 52 C-7.33 52 -7.66 52 -8 52 C-8.04898438 50.99839844 -8.09796875 49.99679687 -8.1484375 48.96484375 C-8.22354079 47.62237241 -8.29908526 46.2799257 -8.375 44.9375 C-8.44460938 43.62652344 -8.51421875 42.31554687 -8.5859375 40.96484375 C-8.99805436 37.01863043 -9.79756567 33.75882927 -11 30 C-10.67 30 -10.34 30 -10 30 C-9.67 25.38 -9.34 20.76 -9 16 C-8.67 16 -8.34 16 -8 16 C-8 19.96 -8 23.92 -8 28 C-7.34 28 -6.68 28 -6 28 C-5.97421875 27.37996094 -5.9484375 26.75992187 -5.921875 26.12109375 C-5.37218005 17.53835663 -3.88278329 7.76556657 0 0 Z " fill="#2D8636" transform="translate(753,307)"/>
<path d="M0 0 C3.62104732 0.67894637 4.77392866 1.67685197 7 4.5625 C8.45781334 8.93594001 8.0598032 12.95765357 8 17.5625 C3.05 17.5625 -1.9 17.5625 -7 17.5625 C-7.48484848 6.53219697 -7.48484848 6.53219697 -5.375 2.3125 C-3 0.5625 -3 0.5625 0 0 Z " fill="#F6F8FA" transform="translate(914,635.4375)"/>
<path d="M0 0 C7.92 0 15.84 0 24 0 C24 1.98 24 3.96 24 6 C23.34 6 22.68 6 22 6 C22 4.68 22 3.36 22 2 C17.38 2 12.76 2 8 2 C8 5.3 8 8.6 8 12 C11.3 12 14.6 12 18 12 C18 10.68 18 9.36 18 8 C18.66 8 19.32 8 20 8 C20 11.3 20 14.6 20 18 C19.34 18 18.68 18 18 18 C18 16.68 18 15.36 18 14 C14.7 14 11.4 14 8 14 C8 18.29 8 22.58 8 27 C9.65 27 11.3 27 13 27 C13 27.66 13 28.32 13 29 C8.71 29 4.42 29 0 29 C0 28.34 0 27.68 0 27 C1.32 27 2.64 27 4 27 C4 18.75 4 10.5 4 2 C2.68 2 1.36 2 0 2 C0 1.34 0 0.68 0 0 Z " fill="#519F48" transform="translate(521,712)"/>
<path d="M0 0 C7.92 0 15.84 0 24 0 C24 1.98 24 3.96 24 6 C23.34 6 22.68 6 22 6 C22 4.68 22 3.36 22 2 C17.38 2 12.76 2 8 2 C8 5.3 8 8.6 8 12 C11.3 12 14.6 12 18 12 C18 10.68 18 9.36 18 8 C18.66 8 19.32 8 20 8 C20 11.3 20 14.6 20 18 C19.34 18 18.68 18 18 18 C18 16.68 18 15.36 18 14 C14.7 14 11.4 14 8 14 C8 18.29 8 22.58 8 27 C9.65 27 11.3 27 13 27 C13 27.66 13 28.32 13 29 C8.71 29 4.42 29 0 29 C0 28.34 0 27.68 0 27 C1.32 27 2.64 27 4 27 C4 18.75 4 10.5 4 2 C2.68 2 1.36 2 0 2 C0 1.34 0 0.68 0 0 Z " fill="#519F48" transform="translate(388,712)"/>
<path d="M0 0 C3.125 0.25 3.125 0.25 4.80200195 1.51489258 C6.41036554 3.62425593 6.47715621 4.63774128 6.41796875 7.26171875 C6.40830078 8.01904297 6.39863281 8.77636719 6.38867188 9.55664062 C6.36353516 10.34232422 6.33839844 11.12800781 6.3125 11.9375 C6.29219727 13.13342773 6.29219727 13.13342773 6.27148438 14.35351562 C6.23617089 16.31929967 6.18236447 18.28473582 6.125 20.25 C7.445 20.25 8.765 20.25 10.125 20.25 C10.125 20.91 10.125 21.57 10.125 22.25 C6.825 22.25 3.525 22.25 0.125 22.25 C0.125 21.59 0.125 20.93 0.125 20.25 C1.115 20.25 2.105 20.25 3.125 20.25 C2.98441524 17.79126232 2.83777001 15.33314825 2.6875 12.875 C2.64818359 12.17632813 2.60886719 11.47765625 2.56835938 10.7578125 C2.38219866 6.87639508 2.38219866 6.87639508 1.125 3.25 C-0.855 3.25 -2.835 3.25 -4.875 3.25 C-5.205 8.86 -5.535 14.47 -5.875 20.25 C-4.885 20.25 -3.895 20.25 -2.875 20.25 C-2.875 20.91 -2.875 21.57 -2.875 22.25 C-6.175 22.25 -9.475 22.25 -12.875 22.25 C-12.875 21.59 -12.875 20.93 -12.875 20.25 C-11.885 20.25 -10.895 20.25 -9.875 20.25 C-9.875 14.64 -9.875 9.03 -9.875 3.25 C-11.195 3.25 -12.515 3.25 -13.875 3.25 C-13.875 2.59 -13.875 1.93 -13.875 1.25 C-13.16472656 1.26160156 -12.45445312 1.27320313 -11.72265625 1.28515625 C-10.80355469 1.29417969 -9.88445313 1.30320312 -8.9375 1.3125 C-7.56271484 1.32990234 -7.56271484 1.32990234 -6.16015625 1.34765625 C-3.31808184 1.22620008 -3.01581057 0.2622444 0 0 Z " fill="#61A859" transform="translate(723.875,718.75)"/>
<path d="M0 0 C3.125 0.25 3.125 0.25 4.80200195 1.51489258 C6.41036554 3.62425593 6.47715621 4.63774128 6.41796875 7.26171875 C6.40830078 8.01904297 6.39863281 8.77636719 6.38867188 9.55664062 C6.36353516 10.34232422 6.33839844 11.12800781 6.3125 11.9375 C6.29219727 13.13342773 6.29219727 13.13342773 6.27148438 14.35351562 C6.23617089 16.31929967 6.18236447 18.28473582 6.125 20.25 C7.445 20.25 8.765 20.25 10.125 20.25 C10.125 20.91 10.125 21.57 10.125 22.25 C6.825 22.25 3.525 22.25 0.125 22.25 C0.125 21.59 0.125 20.93 0.125 20.25 C1.115 20.25 2.105 20.25 3.125 20.25 C2.98441524 17.79126232 2.83777001 15.33314825 2.6875 12.875 C2.64818359 12.17632813 2.60886719 11.47765625 2.56835938 10.7578125 C2.38219866 6.87639508 2.38219866 6.87639508 1.125 3.25 C-0.855 3.25 -2.835 3.25 -4.875 3.25 C-5.205 8.86 -5.535 14.47 -5.875 20.25 C-4.885 20.25 -3.895 20.25 -2.875 20.25 C-2.875 20.91 -2.875 21.57 -2.875 22.25 C-6.175 22.25 -9.475 22.25 -12.875 22.25 C-12.875 21.59 -12.875 20.93 -12.875 20.25 C-11.885 20.25 -10.895 20.25 -9.875 20.25 C-9.875 14.64 -9.875 9.03 -9.875 3.25 C-11.195 3.25 -12.515 3.25 -13.875 3.25 C-13.875 2.59 -13.875 1.93 -13.875 1.25 C-13.16472656 1.26160156 -12.45445312 1.27320313 -11.72265625 1.28515625 C-10.80355469 1.29417969 -9.88445313 1.30320312 -8.9375 1.3125 C-7.56271484 1.32990234 -7.56271484 1.32990234 -6.16015625 1.34765625 C-3.31808184 1.22620008 -3.01581057 0.2622444 0 0 Z " fill="#61A859" transform="translate(645.875,718.75)"/>
<path d="M0 0 C3.125 0.25 3.125 0.25 4.80200195 1.51489258 C6.41036554 3.62425593 6.47715621 4.63774128 6.41796875 7.26171875 C6.40830078 8.01904297 6.39863281 8.77636719 6.38867188 9.55664062 C6.36353516 10.34232422 6.33839844 11.12800781 6.3125 11.9375 C6.29219727 13.13342773 6.29219727 13.13342773 6.27148438 14.35351562 C6.23617089 16.31929967 6.18236447 18.28473582 6.125 20.25 C7.445 20.25 8.765 20.25 10.125 20.25 C10.125 20.91 10.125 21.57 10.125 22.25 C6.825 22.25 3.525 22.25 0.125 22.25 C0.125 21.59 0.125 20.93 0.125 20.25 C1.115 20.25 2.105 20.25 3.125 20.25 C2.98441524 17.79126232 2.83777001 15.33314825 2.6875 12.875 C2.64818359 12.17632813 2.60886719 11.47765625 2.56835938 10.7578125 C2.38219866 6.87639508 2.38219866 6.87639508 1.125 3.25 C-0.855 3.25 -2.835 3.25 -4.875 3.25 C-5.205 8.86 -5.535 14.47 -5.875 20.25 C-4.885 20.25 -3.895 20.25 -2.875 20.25 C-2.875 20.91 -2.875 21.57 -2.875 22.25 C-6.175 22.25 -9.475 22.25 -12.875 22.25 C-12.875 21.59 -12.875 20.93 -12.875 20.25 C-11.885 20.25 -10.895 20.25 -9.875 20.25 C-9.875 14.64 -9.875 9.03 -9.875 3.25 C-11.195 3.25 -12.515 3.25 -13.875 3.25 C-13.875 2.59 -13.875 1.93 -13.875 1.25 C-13.16472656 1.26160156 -12.45445312 1.27320313 -11.72265625 1.28515625 C-10.80355469 1.29417969 -9.88445312 1.30320312 -8.9375 1.3125 C-7.56271484 1.32990234 -7.56271484 1.32990234 -6.16015625 1.34765625 C-3.31808184 1.22620008 -3.01581057 0.2622444 0 0 Z " fill="#61A859" transform="translate(361.875,718.75)"/>
<path d="M0 0 C3.96 0 7.92 0 12 0 C12 0.66 12 1.32 12 2 C10.68 2 9.36 2 8 2 C8 10.25 8 18.5 8 27 C12.29 27 16.58 27 21 27 C21 25.35 21 23.7 21 22 C21.99 22 22.98 22 24 22 C24 24.31 24 26.62 24 29 C16.08 29 8.16 29 0 29 C0 28.34 0 27.68 0 27 C1.32 27 2.64 27 4 27 C4 18.75 4 10.5 4 2 C2.68 2 1.36 2 0 2 C0 1.34 0 0.68 0 0 Z " fill="#55A24C" transform="translate(750,712)"/>
<path d="M0 0 C2.875 0.9375 2.875 0.9375 4.875 3.9375 C5.53570011 8.53935308 5.68582976 12.59651232 3.25 16.625 C0.875 17.9375 0.875 17.9375 -2.25 17.9375 C-5.125 16.9375 -5.125 16.9375 -6.28125 15.15625 C-7.69881767 11.42857205 -7.69970033 7.85982976 -7.125 3.9375 C-4.97369786 0.46231962 -4.09807401 -0.08196148 0 0 Z " fill="#F5F9F4" transform="translate(788.125,721.0625)"/>
<path d="M0 0 C2.875 0.9375 2.875 0.9375 4.875 3.9375 C5.53570011 8.53935308 5.68582976 12.59651232 3.25 16.625 C0.875 17.9375 0.875 17.9375 -2.25 17.9375 C-5.125 16.9375 -5.125 16.9375 -6.28125 15.15625 C-7.69881767 11.42857205 -7.69970033 7.85982976 -7.125 3.9375 C-4.97369786 0.46231962 -4.09807401 -0.08196148 0 0 Z " fill="#F5F9F4" transform="translate(573.125,721.0625)"/>
<path d="M0 0 C2.875 0.9375 2.875 0.9375 4.875 3.9375 C5.53570011 8.53935308 5.68582976 12.59651232 3.25 16.625 C0.875 17.9375 0.875 17.9375 -2.25 17.9375 C-5.125 16.9375 -5.125 16.9375 -6.28125 15.15625 C-7.69881767 11.42857205 -7.69970033 7.85982976 -7.125 3.9375 C-4.97369786 0.46231962 -4.09807401 -0.08196148 0 0 Z " fill="#F5F9F4" transform="translate(244.125,721.0625)"/>
<path d="M0 0 C2.875 0.9375 2.875 0.9375 4.875 3.9375 C5.53570011 8.53935308 5.68582976 12.59651232 3.25 16.625 C0.875 17.9375 0.875 17.9375 -2.25 17.9375 C-5.125 16.9375 -5.125 16.9375 -6.28125 15.15625 C-7.69881767 11.42857205 -7.69970033 7.85982976 -7.125 3.9375 C-4.97369786 0.46231962 -4.09807401 -0.08196148 0 0 Z " fill="#F5F9F4" transform="translate(220.125,721.0625)"/>
<path d="M0 0 C2.375 0.875 2.375 0.875 4.375 2.875 C4.67578125 5.58984375 4.67578125 5.58984375 4.6875 8.8125 C4.70425781 9.87339844 4.72101562 10.93429687 4.73828125 12.02734375 C4.375 14.875 4.375 14.875 3.01171875 16.7265625 C0.64380854 18.38805559 -0.80366638 18.36873338 -3.625 17.875 C-6.39181014 14.96221906 -7.05643408 12.8542436 -7.0625 8.875 C-6.95195409 5.4732009 -6.78212127 4.12523018 -4.9375 1.1875 C-2.625 -0.125 -2.625 -0.125 0 0 Z " fill="#F6FAF6" transform="translate(669.625,721.125)"/>
<path d="M0 0 C2.375 0.875 2.375 0.875 4.375 2.875 C4.67578125 5.58984375 4.67578125 5.58984375 4.6875 8.8125 C4.70425781 9.87339844 4.72101563 10.93429687 4.73828125 12.02734375 C4.375 14.875 4.375 14.875 3.01171875 16.7265625 C0.64380854 18.38805559 -0.80366638 18.36873338 -3.625 17.875 C-6.39181014 14.96221906 -7.05643408 12.8542436 -7.0625 8.875 C-6.95195409 5.4732009 -6.78212127 4.12523018 -4.9375 1.1875 C-2.625 -0.125 -2.625 -0.125 0 0 Z " fill="#F6FAF6" transform="translate(307.625,721.125)"/>
<path d="M0 0 C1.32 0 2.64 0 4 0 C4 1.98 4 3.96 4 6 C6.31 6 8.62 6 11 6 C11 6.66 11 7.32 11 8 C8.69 8 6.38 8 4 8 C4.33 13.28 4.66 18.56 5 24 C5.99 24 6.98 24 8 24 C8.33 23.01 8.66 22.02 9 21 C9.99 21 10.98 21 12 21 C11.42655063 23.86724686 11.1385485 24.8614515 9 27 C6.0625 27.375 6.0625 27.375 3 27 C0.27297873 24.50128749 0.00459052 23.05753452 -0.29296875 19.328125 C-0.27316751 17.96843965 -0.23759202 16.6089066 -0.1875 15.25 C-0.17396484 14.55261719 -0.16042969 13.85523438 -0.14648438 13.13671875 C-0.1112945 11.42414459 -0.05749155 9.71197059 0 8 C-0.99 8 -1.98 8 -3 8 C-3 7.34 -3 6.68 -3 6 C-2.01 6 -1.02 6 0 6 C0 4.02 0 2.04 0 0 Z " fill="#5BA552" transform="translate(455,714)"/>
<path d="M0 0 C1.32 0 2.64 0 4 0 C4 1.98 4 3.96 4 6 C6.31 6 8.62 6 11 6 C11 6.66 11 7.32 11 8 C8.69 8 6.38 8 4 8 C4.33 13.28 4.66 18.56 5 24 C5.99 24 6.98 24 8 24 C8.33 23.01 8.66 22.02 9 21 C9.99 21 10.98 21 12 21 C11.42655063 23.86724686 11.1385485 24.8614515 9 27 C6.0625 27.375 6.0625 27.375 3 27 C0.27297873 24.50128749 0.00459052 23.05753452 -0.29296875 19.328125 C-0.27316751 17.96843965 -0.23759202 16.6089066 -0.1875 15.25 C-0.17396484 14.55261719 -0.16042969 13.85523438 -0.14648438 13.13671875 C-0.1112945 11.42414459 -0.05749155 9.71197059 0 8 C-0.99 8 -1.98 8 -3 8 C-3 7.34 -3 6.68 -3 6 C-2.01 6 -1.02 6 0 6 C0 4.02 0 2.04 0 0 Z " fill="#5BA552" transform="translate(259,714)"/>
<path d="M0 0 C2.97 0 5.94 0 9 0 C9 0.66 9 1.32 9 2 C8.01 2.495 8.01 2.495 7 3 C7.28875 3.69867187 7.5775 4.39734375 7.875 5.1171875 C8.431875 6.48230469 8.431875 6.48230469 9 7.875 C9.37125 8.77992188 9.7425 9.68484375 10.125 10.6171875 C11 13 11 13 11 15 C11.66 15 12.32 15 13 15 C13.1546875 14.01 13.1546875 14.01 13.3125 13 C14.19213564 9.16158991 15.56969896 5.66903309 17 2 C16.34 2 15.68 2 15 2 C15 1.34 15 0.68 15 0 C17.31 0 19.62 0 22 0 C22 0.66 22 1.32 22 2 C21.01 2.495 21.01 2.495 20 3 C19.06765643 4.82164603 19.06765643 4.82164603 18.2734375 7.03515625 C17.9640625 7.84404297 17.6546875 8.65292969 17.3359375 9.48632812 C17.01882813 10.33646484 16.70171875 11.18660156 16.375 12.0625 C16.05015625 12.91650391 15.7253125 13.77050781 15.390625 14.65039062 C14.58744885 16.76463372 13.79089786 18.88113975 13 21 C11.10644531 20.70458984 11.10644531 20.70458984 9 20 C7.70631871 17.51352083 6.70154274 15.23688773 5.75 12.625 C5.481875 11.93921875 5.21375 11.2534375 4.9375 10.546875 C3.8022095 7.56963359 3 5.21028808 3 2 C2.01 2 1.02 2 0 2 C0 1.34 0 0.68 0 0 Z " fill="#55A24C" transform="translate(799,720)"/>
<path d="M0 0 C1.258125 -0.04125 2.51625 -0.0825 3.8125 -0.125 C4.52019531 -0.14820313 5.22789062 -0.17140625 5.95703125 -0.1953125 C8 0 8 0 11 2 C11.3984375 3.875 11.3984375 3.875 11.375 6 C11.38273438 6.70125 11.39046875 7.4025 11.3984375 8.125 C11 10 11 10 8 12 C5.95703125 12.1953125 5.95703125 12.1953125 3.8125 12.125 C1.9253125 12.063125 1.9253125 12.063125 0 12 C0 8.04 0 4.08 0 0 Z " fill="#FCFDFC" transform="translate(187,714)"/>
<path d="M0 0 C2.31 0 4.62 0 7 0 C7 9.24 7 18.48 7 28 C7.99 28 8.98 28 10 28 C10 28.66 10 29.32 10 30 C8.02 30 6.04 30 4 30 C4 29.01 4 28.02 4 27 C3.34 27 2.68 27 2 27 C2.66 18.75 3.32 10.5 4 2 C2.68 2 1.36 2 0 2 C0 1.34 0 0.68 0 0 Z " fill="#52A049" transform="translate(309,711)"/>
<path d="M0 0 C2.31 0 4.62 0 7 0 C7 9.24 7 18.48 7 28 C8.32 28 9.64 28 11 28 C11 28.66 11 29.32 11 30 C7.37 30 3.74 30 0 30 C0 29.34 0 28.68 0 28 C1.32 28 2.64 28 4 28 C4 19.42 4 10.84 4 2 C2.68 2 1.36 2 0 2 C0 1.34 0 0.68 0 0 Z " fill="#509F47" transform="translate(548,711)"/>
<path d="M0 0 C1.51561381 3.03122763 0.39877205 5.07846675 -0.43359375 8.3203125 C-0.75263672 9.57714844 -1.07167969 10.83398438 -1.40039062 12.12890625 C-1.74594249 13.46097675 -2.09164761 14.7930075 -2.4375 16.125 C-2.77994153 17.46467913 -3.12174652 18.80452115 -3.46289062 20.14453125 C-4.30232932 23.43134754 -5.14829594 26.71634453 -6 30 C-6.66 28.68 -7.32 27.36 -8 26 C-8.99 28.31 -9.98 30.62 -11 33 C-12.18857105 29.43428684 -11.717232 28.05218059 -10.78515625 24.45703125 C-10.51123047 23.38388672 -10.23730469 22.31074219 -9.95507812 21.20507812 C-9.51325195 19.52575195 -9.51325195 19.52575195 -9.0625 17.8125 C-8.77181641 16.68134766 -8.48113281 15.55019531 -8.18164062 14.38476562 C-7.46176152 11.5878583 -6.73427514 8.79315607 -6 6 C-5.67 6 -5.34 6 -5 6 C-5 7.65 -5 9.3 -5 11 C-4.34 11 -3.68 11 -3 11 C-3.03480469 10.37351562 -3.06960938 9.74703125 -3.10546875 9.1015625 C-3.13253906 8.28429687 -3.15960937 7.46703125 -3.1875 6.625 C-3.22230469 5.81289063 -3.25710938 5.00078125 -3.29296875 4.1640625 C-3.19628906 3.44992187 -3.09960938 2.73578125 -3 2 C-2.01 1.34 -1.02 0.68 0 0 Z " fill="#23802D" transform="translate(750,354)"/>
<path d="M0 0 C-2.92324707 1.94883138 -4.51083018 2.48079727 -7.875 3.125 C-9.13957031 3.37636719 -9.13957031 3.37636719 -10.4296875 3.6328125 C-12.99151915 3.99878845 -15.41609989 4.06482904 -18 4 C-18 3.67 -18 3.34 -18 3 C-32.19 2.67 -46.38 2.34 -61 2 C-61 1.67 -61 1.34 -61 1 C-40.66798583 -0.20358646 -20.35856211 -0.10343989 0 0 Z " fill="#469ED7" transform="translate(407,325)"/>
<path d="M0 0 C2.97 0 5.94 0 9 0 C9 0.66 9 1.32 9 2 C8.01 2 7.02 2 6 2 C7.65 5.96 9.3 9.92 11 14 C11.66 13.67 12.32 13.34 13 13 C12.125 18.75 12.125 18.75 11 21 C10.01 21 9.02 21 8 21 C7.5625 19.6875 7.125 18.375 6.6875 17.0625 C6.41421875 16.24910156 6.1409375 15.43570313 5.859375 14.59765625 C5.29159602 12.88141524 4.73918011 11.16000653 4.203125 9.43359375 C3.95046875 8.63050781 3.6978125 7.82742188 3.4375 7 C3.20933594 6.2575 2.98117187 5.515 2.74609375 4.75 C2.13743592 2.79897553 2.13743592 2.79897553 0 2 C0 1.34 0 0.68 0 0 Z " fill="#58A34F" transform="translate(585,720)"/>
<path d="M0 0 C2.01822917 0.06510417 4.03645833 0.13020833 6.0546875 0.1953125 C6.41741477 6.60349432 6.41741477 6.60349432 4.8671875 9.1328125 C2.40995509 10.57325909 0.85305582 10.6258307 -1.9453125 10.1953125 C-4.09447035 6.97157573 -4.32818053 5.92827576 -3.9453125 2.1953125 C-1.9453125 0.1953125 -1.9453125 0.1953125 0 0 Z " fill="#F6FAF5" transform="translate(423.9453125,728.8046875)"/>
<path d="M0 0 C2.31 0 4.62 0 7 0 C7 6.27 7 12.54 7 19 C8.32 19 9.64 19 11 19 C11 19.66 11 20.32 11 21 C7.37 21 3.74 21 0 21 C0 20.34 0 19.68 0 19 C1.32 19 2.64 19 4 19 C4 13.39 4 7.78 4 2 C2.68 2 1.36 2 0 2 C0 1.34 0 0.68 0 0 Z " fill="#52A049" transform="translate(697,720)"/>
<path d="M0 0 C2.31 0 4.62 0 7 0 C7 6.27 7 12.54 7 19 C8.32 19 9.64 19 11 19 C11 19.66 11 20.32 11 21 C7.37 21 3.74 21 0 21 C0 20.34 0 19.68 0 19 C1.32 19 2.64 19 4 19 C4 13.39 4 7.78 4 2 C2.68 2 1.36 2 0 2 C0 1.34 0 0.68 0 0 Z " fill="#52A049" transform="translate(619,720)"/>
<path d="M0 0 C2.31 0 4.62 0 7 0 C7 6.27 7 12.54 7 19 C8.32 19 9.64 19 11 19 C11 19.66 11 20.32 11 21 C7.37 21 3.74 21 0 21 C0 20.34 0 19.68 0 19 C1.32 19 2.64 19 4 19 C4 13.39 4 7.78 4 2 C2.68 2 1.36 2 0 2 C0 1.34 0 0.68 0 0 Z " fill="#52A049" transform="translate(439,720)"/>
<path d="M0 0 C2.31 0 4.62 0 7 0 C7 6.27 7 12.54 7 19 C8.32 19 9.64 19 11 19 C11 19.66 11 20.32 11 21 C7.37 21 3.74 21 0 21 C0 20.34 0 19.68 0 19 C1.32 19 2.64 19 4 19 C4 13.39 4 7.78 4 2 C2.68 2 1.36 2 0 2 C0 1.34 0 0.68 0 0 Z " fill="#52A049" transform="translate(335,720)"/>
<path d="M0 0 C0.33 0.66 0.66 1.32 1 2 C1.78375 1.67 2.5675 1.34 3.375 1 C6 0 6 0 8 0 C7.57316761 1.58624235 7.13303842 3.1689098 6.6875 4.75 C6.44386719 5.63171875 6.20023438 6.5134375 5.94921875 7.421875 C4.9736314 10.07161843 3.68616165 11.76400304 2 14 C1.27518916 17.65274469 1.27518916 17.65274469 1 21 C0.34 21 -0.32 21 -1 21 C-1.33 18.69 -1.66 16.38 -2 14 C-1.67 14 -1.34 14 -1 14 C-0.67 9.38 -0.34 4.76 0 0 Z " fill="#4A9753" transform="translate(746,344)"/>
<path d="M0 0 C2.375 -0.125 2.375 -0.125 5 0 C7 2 7 2 7.1953125 5.9140625 C7.18200376 7.48449351 7.15813602 9.05486221 7.125 10.625 C7.11597656 11.42679688 7.10695313 12.22859375 7.09765625 13.0546875 C7.07406223 15.03658523 7.03819065 17.01832981 7 19 C8.32 19 9.64 19 11 19 C11 19.66 11 20.32 11 21 C7.7 21 4.4 21 1 21 C1 20.34 1 19.68 1 19 C1.99 19 2.98 19 4 19 C3.91277063 16.58164103 3.80588627 14.16686684 3.6875 11.75 C3.66494141 11.06808594 3.64238281 10.38617187 3.61914062 9.68359375 C3.39833396 5.54848704 2.90407 3.02085566 0 0 Z " fill="#519F48" transform="translate(723,720)"/>
<path d="M0 0 C2.375 -0.125 2.375 -0.125 5 0 C7 2 7 2 7.1953125 5.9140625 C7.18200376 7.48449351 7.15813602 9.05486221 7.125 10.625 C7.11597656 11.42679688 7.10695313 12.22859375 7.09765625 13.0546875 C7.07406223 15.03658523 7.03819065 17.01832981 7 19 C8.32 19 9.64 19 11 19 C11 19.66 11 20.32 11 21 C7.7 21 4.4 21 1 21 C1 20.34 1 19.68 1 19 C1.99 19 2.98 19 4 19 C3.91277063 16.58164103 3.80588627 14.16686684 3.6875 11.75 C3.66494141 11.06808594 3.64238281 10.38617187 3.61914062 9.68359375 C3.39833396 5.54848704 2.90407 3.02085566 0 0 Z " fill="#519F48" transform="translate(645,720)"/>
<path d="M0 0 C2.375 -0.125 2.375 -0.125 5 0 C7 2 7 2 7.1953125 5.9140625 C7.18200376 7.48449351 7.15813602 9.05486221 7.125 10.625 C7.11597656 11.42679688 7.10695313 12.22859375 7.09765625 13.0546875 C7.07406223 15.03658523 7.03819065 17.01832981 7 19 C8.32 19 9.64 19 11 19 C11 19.66 11 20.32 11 21 C7.7 21 4.4 21 1 21 C1 20.34 1 19.68 1 19 C1.99 19 2.98 19 4 19 C3.91277063 16.58164103 3.80588627 14.16686684 3.6875 11.75 C3.66494141 11.06808594 3.64238281 10.38617187 3.61914062 9.68359375 C3.39833396 5.54848704 2.90407 3.02085566 0 0 Z " fill="#519F48" transform="translate(361,720)"/>
<path d="M0 0 C-0.33 0.61875 -0.66 1.2375 -1 1.875 C-2.75921905 7.37255953 -3.02000023 12.87499951 -0.5 18.125 C-0.005 18.74375 0.49 19.3625 1 20 C-3.75 19.25 -3.75 19.25 -6 17 C-7.45303222 13.22211622 -7.58303688 8.97883279 -7 5 C-3.97916667 0 -3.97916667 0 0 0 Z " fill="#57A34F" transform="translate(666,720)"/>
<path d="M0 0 C1.32 0.66 2.64 1.32 4 2 C4 7.61 4 13.22 4 19 C5.32 19 6.64 19 8 19 C8 19.66 8 20.32 8 21 C4.7 21 1.4 21 -2 21 C-2 20.34 -2 19.68 -2 19 C-1.01 19 -0.02 19 1 19 C0.67 12.73 0.34 6.46 0 0 Z " fill="#509F47" transform="translate(484,720)"/>
<path d="M0 0 C3.65316671 1.24976756 4.78065836 1.67098753 7 5 C7.375 7.9375 7.375 7.9375 7 11 C5 13.375 5 13.375 3 15 C1.68 14.34 0.36 13.68 -1 13 C-0.34 12.67 0.32 12.34 1 12 C1.04125 10.72125 1.0825 9.4425 1.125 8.125 C1.14820313 7.40570312 1.17140625 6.68640625 1.1953125 5.9453125 C1.18331689 3.76136355 1.18331689 3.76136355 -1 2 C-0.67 1.34 -0.34 0.68 0 0 Z " fill="#61A859" transform="translate(196,712)"/>
<path d="M0 0 C2.33944736 0.28730055 4.6739143 0.61936779 7 1 C7.33 2.98 7.66 4.96 8 7 C4.37 7 0.74 7 -3 7 C-1.125 1.125 -1.125 1.125 0 0 Z " fill="#F7FAF7" transform="translate(831,721)"/>
<path d="M0 0 C2.33944736 0.28730055 4.6739143 0.61936779 7 1 C7.33 2.98 7.66 4.96 8 7 C4.37 7 0.74 7 -3 7 C-1.125 1.125 -1.125 1.125 0 0 Z " fill="#F7FAF7" transform="translate(280,721)"/>
<path d="M0 0 C0.33 0.66 0.66 1.32 1 2 C0.01 2.495 0.01 2.495 -1 3 C-1.37125 3.680625 -1.7425 4.36125 -2.125 5.0625 C-4.82904885 9.2988432 -8.39584537 12.5266413 -12 16 C-13.00223463 16.99776037 -14.0031201 17.9968896 -15 19 C-15.33 18.34 -15.66 17.68 -16 17 C-6.26229508 3.13114754 -6.26229508 3.13114754 0 0 Z " fill="#2F8638" transform="translate(776,245)"/>
<path d="M0 0 C1.13583456 3.71727674 0.66670026 5.47051709 -1 9 C-0.01 9 0.98 9 2 9 C2.185625 7.5459375 2.185625 7.5459375 2.375 6.0625 C2.58125 5.051875 2.7875 4.04125 3 3 C3.66 2.67 4.32 2.34 5 2 C4.54705135 3.75140143 4.08741252 5.50107344 3.625 7.25 C3.36976563 8.22453125 3.11453125 9.1990625 2.8515625 10.203125 C2.10401491 12.65837303 1.22876183 14.75617405 0 17 C-0.33 16.34 -0.66 15.68 -1 15 C-1.99 16.32 -2.98 17.64 -4 19 C-3.59060025 12.23784552 -2.43046191 6.32837252 0 0 Z " fill="#288431" transform="translate(753,307)"/>
<path d="M0 0 C4.20626034 1.50223584 5.73900021 4.28550034 8 8 C-0.32789776 12.47112544 -7.42504963 15.39895627 -17 15 C-17 14.67 -17 14.34 -17 14 C-10.73 12.68 -4.46 11.36 2 10 C3.60101127 4.41090372 3.60101127 4.41090372 1.5625 1.625 C1.046875 1.08875 0.53125 0.5525 0 0 Z " fill="#0B2D70" transform="translate(226,493)"/>
<path d="M0 0 C2.31 0 4.62 0 7 0 C7 0.66 7 1.32 7 2 C6.01 2.495 6.01 2.495 5 3 C3.87955751 5.51083614 2.85252068 7.99709287 1.875 10.5625 C1.45927734 11.62887695 1.45927734 11.62887695 1.03515625 12.71679688 C0.35057404 14.47546496 -0.32551635 16.23743424 -1 18 C-1.33 17.34 -1.66 16.68 -2 16 C-2.66 15.67 -3.32 15.34 -4 15 C-3.34 15 -2.68 15 -2 15 C-1.896875 14.34 -1.79375 13.68 -1.6875 13 C-0.80786436 9.16158991 0.56969896 5.66903309 2 2 C1.34 2 0.68 2 0 2 C0 1.34 0 0.68 0 0 Z " fill="#5FA757" transform="translate(814,720)"/>
<path d="M0 0 C0.66 0.33 1.32 0.66 2 1 C1.236875 1.70125 0.47375 2.4025 -0.3125 3.125 C-2.98502812 5.98398357 -4.32679096 8.50147201 -6 12 C-7.5625 13.875 -7.5625 13.875 -9 15 C-9.66 15 -10.32 15 -11 15 C-11.28875 15.969375 -11.5775 16.93875 -11.875 17.9375 C-13 21 -13 21 -15 22 C-12.508624 13.32490099 -6.63950694 6.01705316 0 0 Z " fill="#288330" transform="translate(763,368)"/>
<path d="M0 0 C4.95 0 9.9 0 15 0 C14.06914094 4.65429529 12.98431812 7.18064117 10.625 11.1875 C10.01914062 12.23292969 9.41328125 13.27835937 8.7890625 14.35546875 C7 17 7 17 4 19 C4.492561 14.56695104 5.86400898 13.04375599 9 10 C11.26207287 6.21725111 11.26207287 6.21725111 12 2 C8.04 1.67 4.08 1.34 0 1 C0 0.67 0 0.34 0 0 Z " fill="#1D7C25" transform="translate(780,361)"/>
<path d="M0 0 C-5.01751808 5.01751808 -13.2048035 7.33895197 -20 9 C-14.76102163 2.84989496 -8.07839889 -0.85940414 0 0 Z " fill="#4FA2D9" transform="translate(238,346)"/>
<path d="M0 0 C0 0.66 0 1.32 0 2 C1.36125 1.4740625 1.36125 1.4740625 2.75 0.9375 C6.00591313 -0.00170571 6.92749994 0.04485324 10 1 C9.40832031 1.15855469 8.81664062 1.31710937 8.20703125 1.48046875 C2.85506597 3.06073909 -0.25220987 4.68436288 -4 9 C-4.99 9.495 -4.99 9.495 -6 10 C-5.38909774 3.52443609 -5.38909774 3.52443609 -3.5625 1.0625 C-2 0 -2 0 0 0 Z " fill="#2E8737" transform="translate(757,344)"/>
<path d="M0 0 C2.20805524 -0.0544452 4.41650554 -0.09299283 6.625 -0.125 C7.85476562 -0.14820313 9.08453125 -0.17140625 10.3515625 -0.1953125 C13.94316041 -0.0030428 16.66661175 0.69741444 20 2 C13.0957352 3.95931839 6.00259787 3.01855969 -1 2 C-0.67 1.34 -0.34 0.68 0 0 Z " fill="#193D7B" transform="translate(193,482)"/>
<path d="M0 0 C1.0625 1.8125 1.0625 1.8125 2 4 C1.67 4.99 1.34 5.98 1 7 C0.63508688 8.3930625 0.28137021 9.78909448 -0.0625 11.1875 C-0.371875 12.445625 -0.68125 13.70375 -1 15 C-3.13517533 11.44137445 -3.85222025 8.1378329 -4 4 C-2.0625 1.5625 -2.0625 1.5625 0 0 Z " fill="#529C5B" transform="translate(752,320)"/>
<path d="M0 0 C1.32 0.33 2.64 0.66 4 1 C1.03 4.3 -1.94 7.6 -5 11 C-5.66 10.67 -6.32 10.34 -7 10 C-5.18131364 5.99889001 -3.55014375 2.68950284 0 0 Z " fill="#409047" transform="translate(632,489)"/>
<path d="M0 0 C1.32 0 2.64 0 4 0 C3.49890042 4.38462134 2.01704885 6.8000997 -1 10 C-1.66 10 -2.32 10 -3 10 C-2.21302675 6.58978257 -1.12880057 3.31114834 0 0 Z " fill="#5FA756" transform="translate(498,737)"/>
<path d="M0 0 C0.66 0.33 1.32 0.66 2 1 C-1.3 4.63 -4.6 8.26 -8 12 C-8.66 11.01 -9.32 10.02 -10 9 C-6.7 6.03 -3.4 3.06 0 0 Z " fill="#163877" transform="translate(446,191)"/>
<path d="M0 0 C0.66 0.33 1.32 0.66 2 1 C-4.73076923 9.65384615 -4.73076923 9.65384615 -8.75 10.75 C-9.86375 10.87375 -9.86375 10.87375 -11 11 C-7.6381774 6.74828319 -4.25171681 3.3618226 0 0 Z " fill="#143575" transform="translate(466,174)"/>
<path d="M0 0 C0.33 0 0.66 0 1 0 C1 3.3 1 6.6 1 10 C-1.8996083 10 -4.21462489 9.78561862 -7 9 C-7.66 8.01 -8.32 7.02 -9 6 C-3.25 5.875 -3.25 5.875 -1 7 C-0.67 4.69 -0.34 2.38 0 0 Z " fill="#78B571" transform="translate(312,713)"/>
<path d="M0 0 C1.34262065 0.29369827 2.67696283 0.6278958 4 1 C4.66 0.67 5.32 0.34 6 0 C5.39816251 2.02045442 4.72693904 4.02111039 4 6 C3.01 6.495 3.01 6.495 2 7 C1.67 6.01 1.34 5.02 1 4 C-1.475 5.485 -1.475 5.485 -4 7 C-2.92598892 4.08482708 -2.22189824 2.22189824 0 0 Z " fill="#2E8537" transform="translate(727,413)"/>
<path d="M0 0 C0.66 0 1.32 0 2 0 C2 3.63 2 7.26 2 11 C0.68 11 -0.64 11 -2 11 C-2.05399736 9.54207116 -2.09279177 8.08357288 -2.125 6.625 C-2.15980469 5.40683594 -2.15980469 5.40683594 -2.1953125 4.1640625 C-2 2 -2 2 0 0 Z " fill="#469551" transform="translate(744,366)"/>
<path d="M0 0 C2 2 2 2 2.25 4 C2.4975 4.66 2.745 5.32 3 6 C5.99615946 7.3045656 5.99615946 7.3045656 9 8 C6 9 6 9 3.95703125 8.22265625 C3.24933594 7.83980469 2.54164063 7.45695312 1.8125 7.0625 C1.09707031 6.68222656 0.38164062 6.30195313 -0.35546875 5.91015625 C-0.89816406 5.60980469 -1.44085938 5.30945313 -2 5 C-1.34 3.35 -0.68 1.7 0 0 Z " fill="#173974" transform="translate(213,471)"/>
<path d="M0 0 C0.66 0.33 1.32 0.66 2 1 C0.89300099 4.21029714 -0.01603825 5.00968977 -3 6.8125 C-3.99 7.204375 -4.98 7.59625 -6 8 C-6.66 7.67 -7.32 7.34 -8 7 C-5.36 4.69 -2.72 2.38 0 0 Z " fill="#ECF4FA" transform="translate(207,538)"/>
<path d="M0 0 C-0.33 0.66 -0.66 1.32 -1 2 C-3.94140625 2.6328125 -3.94140625 2.6328125 -7.5625 3.125 C-8.76003906 3.29257812 -9.95757812 3.46015625 -11.19140625 3.6328125 C-12.11824219 3.75398438 -13.04507812 3.87515625 -14 4 C-11.8244694 1.8244694 -10.44026108 1.28120447 -7.5625 0.3125 C-6.78003906 0.04050781 -5.99757813 -0.23148437 -5.19140625 -0.51171875 C-3 -1 -3 -1 0 0 Z " fill="#449CD7" transform="translate(308,347)"/>
<path d="M0 0 C4.20626034 1.50223584 5.73900021 4.28550034 8 8 C7 9 7 9 4.4375 9.0625 C3.633125 9.041875 2.82875 9.02125 2 9 C2.226875 8.2575 2.45375 7.515 2.6875 6.75 C3.29476698 3.94085007 3.29476698 3.94085007 1.5625 1.6875 C1.046875 1.130625 0.53125 0.57375 0 0 Z " fill="#193C78" transform="translate(226,493)"/>
<path d="M0 0 C0.66 0.33 1.32 0.66 2 1 C-1.64751781 6.08441876 -3.85169289 7.79444959 -10 9 C-6.83047153 5.73991357 -3.60062011 2.77762123 0 0 Z " fill="#298432" transform="translate(740,432)"/>
<path d="M0 0 C0.33 0.66 0.66 1.32 1 2 C0.67 2.66 0.34 3.32 0 4 C1.98 3.01 3.96 2.02 6 1 C5.5 2.875 5.5 2.875 4 5 C1.34822355 5.98494554 -1.20547307 6.45912382 -4 7 C-2.68 4.69 -1.36 2.38 0 0 Z " fill="#277F30" transform="translate(722,420)"/>
<path d="M0 0 C0.66 0.99 1.32 1.98 2 3 C1.1025444 6.06630664 0.26961192 7.73038808 -2 10 C-2.66 9.67 -3.32 9.34 -4 9 C-2.80100302 5.9168649 -1.52299523 2.93720508 0 0 Z " fill="#4A9853" transform="translate(732,406)"/>
<path d="M0 0 C0.58265625 0.22558594 1.1653125 0.45117188 1.765625 0.68359375 C1.105625 0.68359375 0.445625 0.68359375 -0.234375 0.68359375 C-0.234375 1.34359375 -0.234375 2.00359375 -0.234375 2.68359375 C-5.5078125 5.90625 -5.5078125 5.90625 -7.234375 6.68359375 C-7.894375 6.35359375 -8.554375 6.02359375 -9.234375 5.68359375 C-8.16544282 4.64769037 -7.07859012 3.63025433 -5.984375 2.62109375 C-5.38109375 2.05261719 -4.7778125 1.48414062 -4.15625 0.8984375 C-2.234375 -0.31640625 -2.234375 -0.31640625 0 0 Z " fill="#173776" transform="translate(552.234375,103.31640625)"/>
<path d="M0 0 C2.5654594 2.5654594 2.54046087 4.47686668 3 8 C2.01 8.66 1.02 9.32 0 10 C-0.66 9.67 -1.32 9.34 -2 9 C-1.34 6.03 -0.68 3.06 0 0 Z " fill="#4A9954" transform="translate(741,378)"/>
<path d="M0 0 C0.99 0 1.98 0 3 0 C2.42655063 2.86724686 2.1385485 3.8614515 0 6 C-3.125 6.125 -3.125 6.125 -6 6 C-4 4 -4 4 -1 3 C-0.67 2.01 -0.34 1.02 0 0 Z " fill="#62A95A" transform="translate(464,735)"/>
<path d="M0 0 C0.99 0 1.98 0 3 0 C2.42655063 2.86724686 2.1385485 3.8614515 0 6 C-3.125 6.125 -3.125 6.125 -6 6 C-4 4 -4 4 -1 3 C-0.67 2.01 -0.34 1.02 0 0 Z " fill="#62A95A" transform="translate(268,735)"/>
<path d="M0 0 C0.99 0 1.98 0 3 0 C1.62845496 2.95409701 0.01136276 5.44008376 -2 8 C-2.66 7.67 -3.32 7.34 -4 7 C-2.92598892 4.08482708 -2.22189824 2.22189824 0 0 Z " fill="#214A82" transform="translate(217,466)"/>
<path d="M0 0 C3.5219721 -0.08004482 6.61981469 -0.04005702 10 1 C9.67 2.32 9.34 3.64 9 5 C8.01 4.34 7.02 3.68 6 3 C3.37468476 2.83286431 3.37468476 2.83286431 1 3 C0.67 2.01 0.34 1.02 0 0 Z " fill="#71B169" transform="translate(665,719)"/>
<path d="M0 0 C0.99 0.66 1.98 1.32 3 2 C0.03 4.97 -2.94 7.94 -6 11 C-6 6.71464033 -3.7483722 5.15057301 -1 2 C-0.67 1.34 -0.34 0.68 0 0 Z " fill="#499652" transform="translate(770,318)"/>
<path d="M0 0 C2.64 0 5.28 0 8 0 C8 0.66 8 1.32 8 2 C7.01 2 6.02 2 5 2 C5 2.66 5 3.32 5 4 C4.34 4 3.68 4 3 4 C3 3.34 3 2.68 3 2 C2.01 2 1.02 2 0 2 C0 1.34 0 0.68 0 0 Z " fill="#57A34F" transform="translate(610,720)"/>
<path d="M0 0 C-1.32 0.33 -2.64 0.66 -4 1 C-4 1.66 -4 2.32 -4 3 C-6.375 3.625 -6.375 3.625 -9 4 C-9.66 3.34 -10.32 2.68 -11 2 C-7.36576791 -0.32590854 -4.22911669 -0.16265833 0 0 Z " fill="#278230" transform="translate(822,378)"/>
<path d="M0 0 C1.32 0.33 2.64 0.66 4 1 C2.6875 3.9375 2.6875 3.9375 1 7 C0.01 7.33 -0.98 7.66 -2 8 C-1.34 5.36 -0.68 2.72 0 0 Z " fill="#77B470" transform="translate(598,726)"/>
<path d="M0 0 C0.66 0.66 1.32 1.32 2 2 C1.625 5.125 1.625 5.125 1 8 C0.01 8 -0.98 8 -2 8 C-1.34 5.36 -0.68 2.72 0 0 Z " fill="#4B9953" transform="translate(754,308)"/>
<path d="M0 0 C2.31 0 4.62 0 7 0 C7 0.99 7 1.98 7 3 C5.02 3 3.04 3 1 3 C0.67 2.01 0.34 1.02 0 0 Z " fill="#335D91" transform="translate(175,507)"/>
<path d="M0 0 C0.66 0.33 1.32 0.66 2 1 C2 1.99 2 2.98 2 4 C-0.31 4.33 -2.62 4.66 -5 5 C-3.35 3.35 -1.7 1.7 0 0 Z " fill="#F3F8F3" transform="translate(716,489)"/>
</svg>
